[Module]
VortexTrackerII=0
Version=3.7
Title=you shouldn't quit chipping ::::
Author=vibe.->.wbcbz7.3oo4zoiq.abc.ay
ShowInfo=0
NoteTable=2
ChipFreq=1750000
IntFreq=48828
Speed=6
Noise=HEX
PlayOrder=L0,1,2,2,3,3,3,4,5,6,7,8,7,8,9,10,10,11,12,13,13,14,15


[Ornament1]
L0

[Ornament2]
12,0,L0

[Ornament3]
L0

[Ornament4]
L0

[Ornament5]
L0

[Ornament6]
L0

[Ornament7]
L0

[Ornament8]
L0

[Ornament9]
L0

[Ornament10]
L0

[Ornament11]
L0

[Ornament12]
L0

[Ornament13]
L0

[Ornament14]
L0

[Ornament15]
L0

[Sample1]
T.E +000_ +00_ A_ L

[Sample2]
TNE -19A^ +00_ E_
TNE +000_ +00_ 8_
TNE +000_ +00_ 0_
... +000_ +00_ 0_ L

[Sample3]
TNE -19A^ +00_ E_
TNE +000_ +00_ E_ L

[Sample4]
T.E +000_ +00_ 9_ L
T.E +000_ +00_ 9_
T.E +000_ +00_ 9_
T.E +000_ +00_ 9-

[Sample5]
T.E +000_ +00_ 9_ L

[Sample6]
TN. -19B_ +00_ F_
T.. +0C0^ +00_ F_
T.. +0C0^ +00_ E_ L
T.. +0C0^ +00_ E-

[Sample7]
TN. +080^ +01^ F_
T.. +080^ +00_ E_
TN. +080^ +00^ E_
TN. +080^ +00_ D_
TN. +080^ +00_ D_
... +080^ +00_ 0- L

[Sample8]
T.E +001_ +00_ F_ L

[Sample9]
... +000_ +00_ 0_ L

[Sample10]
... +000_ +00_ 0_ L

[Sample11]
... +000_ +00_ 0_ L

[Sample12]
... +000_ +00_ 0_ L

[Sample13]
... +000_ +00_ 0_ L

[Sample14]
... +000_ +00_ 0_ L

[Sample15]
... +000_ +00_ 0_ L

[Sample16]
... +000_ +00_ 0_ L

[Sample17]
... +000_ +00_ 0_ L

[Sample18]
... +000_ +00_ 0_ L

[Sample19]
... +000_ +00_ 0_ L

[Sample20]
... +000_ +00_ 0_ L

[Sample21]
... +000_ +00_ 0_ L

[Sample22]
... +000_ +00_ 0_ L

[Sample23]
... +000_ +00_ 0_ L

[Sample24]
... +000_ +00_ 0_ L

[Sample25]
... +000_ +00_ 0_ L

[Sample26]
... +000_ +00_ 0_ L

[Sample27]
... +000_ +00_ 0_ L

[Sample28]
... +000_ +00_ 0_ L

[Sample29]
... +000_ +00_ 0_ L

[Sample30]
... +000_ +00_ 0_ L

[Sample31]
... +000_ +00_ 0_ L

[Pattern0]
....|..|R-- I... ....|R-- E... ....|R-- .... ....
....|..|R-- D... ....|R-- A... ....|R-- .... ....
....|..|R-- M... ....|R-- .... ....|R-- .... ....
....|..|R-- I... ....|R-- E... ....|R-- .... ....
....|..|R-- S... ....|R-- J... ....|R-- .... ....
....|..|R-- H... ....|R-- K... ....|R-- .... ....
....|..|R-- .... ....|R-- O... ....|R-- .... ....
....|..|R-- C... ....|R-- T... ....|R-- .... ....
....|..|R-- R... ....|R-- .... ....|R-- .... ....
....|..|R-- A... ....|R-- V... ....|R-- .... ....
....|..|R-- P... ....|R-- B... ....|R-- .... ....
....|..|R-- .... ....|R-- I... ....|R-- .... ....
....|..|R-- I... ....|R-- .... ....|R-- .... ....
....|..|R-- S... ....|R-- K... ....|R-- .... ....
....|..|R-- .... ....|R-- A... ....|R-- .... ....
....|..|R-- .... ....|R-- K... ....|R-- .... ....
....|..|R-- O... ....|R-- O... ....|R-- .... ....
....|..|R-- .... ....|R-- S... ....|R-- .... ....
....|..|R-- I... ....|R-- .... ....|R-- .... ....
....|..|R-- D... ....|R-- B... ....|R-- .... ....
....|..|R-- M... ....|R-- F... ....|R-- .... ....
....|..|R-- I... ....|R-- O... ....|R-- .... ....
....|..|R-- S... ....|R-- K... ....|R-- .... ....
....|..|R-- H... ....|R-- S... ....|R-- .... ....
....|..|R-- .... ....|R-- K... ....|R-- .... ....
....|..|R-- 8D.. ....|R-- S... ....|R-- .... ....
....|..|R-- .... ....|R-- .... ....|R-- .... ....
....|..|R-- G... ....|R-- .... ....|R-- .... ....
....|..|R-- R... ....|R-- A... ....|R-- .... ....
....|..|R-- I... ....|R-- N... ....|R-- .... ....
....|..|R-- T... ....|R-- D... ....|R-- .... ....
....|..|R-- 3... ....|R-- .... ....|R-- .... ....
....|..|R-- .... ....|R-- A... ....|R-- .... ....
....|..|R-- T... ....|R-- L... ....|R-- .... ....
....|..|R-- O... ....|R-- .... ....|R-- .... ....
....|..|R-- .... ....|R-- .... ....|R-- .... ....
....|..|R-- N... ....|R-- 3... ....|R-- .... ....
....|..|R-- 1... ....|R-- E... ....|R-- .... ....
....|..|R-- K... ....|R-- D... ....|R-- .... ....
....|..|R-- O... ....|R-- .... ....|R-- .... ....
....|..|R-- .... ....|R-- E... ....|R-- .... ....
....|..|R-- Q... ....|R-- K... ....|R-- .... ....
....|..|R-- U... ....|R-- .... ....|R-- .... ....
....|..|R-- I... ....|R-- S... ....|R-- .... ....
....|..|R-- E... ....|R-- .... ....|R-- .... ....
....|..|R-- T... ....|R-- M... ....|R-- .... ....
....|..|R-- .... ....|R-- U... ....|R-- .... ....
....|..|R-- M... ....|R-- S... ....|R-- .... ....
....|..|R-- .... ....|R-- I... ....|R-- .... ....
....|..|R-- C... ....|R-- C... ....|R-- .... ....
....|..|R-- M... ....|R-- I... ....|R-- .... ....
....|..|R-- .... ....|R-- A... ....|R-- .... ....
....|..|R-- F... ....|R-- N... ....|R-- .... ....
....|..|R-- A... ....|R-- S... ....|R-- .... ....
....|..|R-- T... ....|R-- .... ....|R-- .... ....
....|..|R-- A... ....|R-- I... ....|R-- .... ....
....|..|R-- L... ....|R-- N... ....|R-- .... ....
....|..|R-- S... ....|R-- D... ....|R-- .... ....
....|..|R-- N... ....|R-- A... ....|R-- .... ....
....|..|R-- I... ....|R-- V... ....|R-- .... ....
....|..|R-- P... ....|R-- O... ....|R-- .... ....
....|..|R-- E... ....|R-- R... ....|R-- .... ....
....|..|R-- .... ....|R-- L... ....|R-- .... ....
....|..|R-- .... ....|R-- D... ....|R-- .... ....

[Pattern1]
.100|..|--- .... ....|--- .... ....|C-4 21.F ....
....|..|--- .... ....|--- .... ....|--- .... ....
.100|10|C-4 2F.A ....|--- .... ....|C-4 .4.C ....
.100|..|--- .... ....|--- .... ....|C-4 .A.F A110
....|..|--- .... ....|--- .... ....|C-4 .F.8 ....
....|..|--- .... ....|E-4 4F.A ....|C-4 ...A A110
..95|1F|C-4 .8.. ....|--- .... ....|--- .... ....
....|..|--- .... ....|B-4 .... ....|--- .... ....
.100|..|C-4 .F.. ....|--- .... ....|C-4 .8.C 11.A
.400|10|--- .... ....|E-5 .... ....|C-4 .8.. ....
.200|1F|C-4 ...8 ....|--- .... ....|C-4 38.F ....
....|..|C-4 .... ....|D-4 .... ....|--- .... ....
.200|..|C-4 .A.C ....|--- .... ....|C-4 .F.A ....
....|..|--- .... ....|A-4 .... ....|--- .... ....
.300|1F|C-4 3A.F ....|--- .... ....|C-4 2..8 ....
....|..|--- .... ....|D-5 .... ....|--- .... ....
.100|1F|C-4 2F.A 21.1|--- .... ....|C-4 .3.. ....
....|14|--- .... ....|B-3 .... ....|--- .... ....
....|..|C-4 .... ....|--- .... ....|--- .... ....
.150|.5|C-4 ...8 2110|B-4 .... ....|C-4 34.C ....
..A0|.5|--- .... ....|--- .... ....|C-4 25.. ....
....|..|--- .... ....|A-3 .... ....|C-4 3F.8 ....
..20|..|C-4 .6.C ....|--- .... ....|C-4 2... ....
....|..|--- .... ....|A-4 .... ....|--- .... ....
..20|1F|C-4 .3.. ....|--- .... ....|C-4 .... ....
..30|.A|C-4 .2.. ....|D-5 .... ....|--- .... ....
.100|.C|C-4 3C.F 91A0|--- .... ....|C-4 .... ....
....|..|C-4 2F.8 ....|G-3 .... ....|--- .... ....
.100|.8|C-4 3..A 91A0|--- .... ....|C-4 .8.. ....
....|..|--- .... ....|G-4 .... ....|--- .... ....
.440|..|C-4 2... ....|--- .... ....|C-4 .8.. ....
.450|..|--- .... ....|B-4 .... ....|C-4 3A.C ....
.160|.7|C-4 .8.F ....|--- .... ....|C-4 2F.. ....
....|..|--- .... ....|F#3 .... ....|C-4 3..8 ....
.200|.6|C-4 3A.C 21.1|--- .... ....|C-4 2..A ....
.110|..|--- .... ....|B-4 .... ....|C-4 .A.F ....
....|..|C-4 .F.8 ....|--- .... ....|--- .... ....
....|..|C-4 2..A ....|E-3 .... ....|--- .... ....
.140|.4|--- .... ....|--- .... ....|C-4 .8.. ....
....|..|--- .... ....|E-4 .... ....|--- .... ....
.130|.5|C-4 .... ....|--- .... ....|C-4 .8.C ....
..90|.5|--- .... ....|G-4 .... ....|C-4 3A.. ....
.400|..|C-4 .A.F ....|--- .... ....|C-4 2F.8 ....
....|.5|--- .... ....|D-3 .... ....|C-4 3... ....
.500|..|C-4 .F.A ....|--- .... ....|C-4 24.C ....
....|.6|--- .... ....|D-4 .... ....|--- .... ....
.100|..|C-4 ...8 ....|--- .... ....|C-4 .E.F ....
....|..|--- .... ....|A-4 .... ....|--- .... ....
..70|10|C-4 ...A ....|--- .... ....|C-4 .E.. ....
..70|10|--- .... ....|F#4 .... ....|C-4 .C.C ....
....|10|C-4 .... ....|--- .... ....|--- .... ....
.500|..|C-4 ...8 ....|A-4 .... ....|C-4 .C.. ....
.300|..|--- .... ....|--- .... ....|C-4 .E.F ....
....|1F|--- .... ....|B-2 .... ....|C-4 .F.8 ....
.140|..|C-4 .E.C ....|--- .... ....|C-4 ...A ....
....|..|--- .... ....|B-3 .... ....|--- .... ....
.130|1F|C-4 3E.. ....|--- .... ....|C-4 ...8 ....
.100|..|C-4 .C.. ....|F#4 .... ....|--- .... ....
.300|11|C-4 2D.F ....|--- .... ....|C-4 3... ....
....|..|C-4 3F.8 ....|C-3 .... ....|--- .... ....
.100|..|C-4 2..A ....|--- .... ....|C-4 2C.. ....
....|..|--- .... ....|C-4 .... ....|--- .... ....
..90|14|C-4 .... ....|--- .... ....|C-4 .A.. ....
.500|..|--- .... ....|G-4 .... ....|C-4 3C.C ....

[Pattern2]
.100|..|C-4 2..F ....|C-4 6..F ....|C-4 21.C ....
....|..|--- .... ....|C-4 ...C ....|--- .... ....
.100|..|--- .... ....|C-4 2... ....|C-4 .4.. ....
.100|..|C-4 .... ....|C-4 6..A ....|C-4 .A.. A110
....|.6|--- .... ....|C-4 7..F ....|C-4 .F.8 ....
....|..|--- .... ....|--- .... ....|C-4 ...A A110
....|.6|C-4 .... ....|C-4 6..C ....|--- .... ....
....|..|--- .... ....|C-4 ...F ....|--- .... ....
.100|..|--- .... ....|C-4 2..C ....|C-4 .8.C 11.A
.400|..|--- .... ....|C-4 .... ....|C-4 .8.. ....
.200|..|C-4 .... ....|C-4 6..F ....|C-4 38.. ....
....|..|--- .... ....|--- .... ....|--- .... ....
....|.6|C-4 ...C ....|C-4 7... ....|C-4 .F.A ....
....|..|--- .... ....|--- .... ....|--- .... ....
....|..|--- .... ....|C-4 2... ....|C-4 2..8 ....
....|.6|--- .... ....|C-4 7..C ....|--- .... ....
.100|..|C-4 .... ....|C-4 6..F ....|C-4 .3.. ....
....|..|--- .... ....|C-4 2..C ....|--- .... ....
....|..|--- .... ....|C-4 6... ....|--- .... ....
.150|..|--- .... ....|C-4 2... ....|C-4 34.C ....
..A0|.6|C-4 ...F ....|C-4 7..F ....|C-4 25.. ....
....|..|--- .... ....|--- .... ....|C-4 3F.8 ....
....|..|--- .... ....|C-4 2..C ....|C-4 2... ....
....|..|--- .... ....|C-4 6..F ....|--- .... ....
....|..|--- .... ....|C-4 2..C ....|C-4 .... ....
....|..|C-4 ...C ....|C-4 6... ....|--- .... ....
....|..|C-4 ...F ....|C-4 ...F ....|C-4 .... ....
....|..|--- .... ....|C-4 ...C ....|--- .... ....
.100|.6|C-4 .... ....|C-4 7..F ....|C-4 .8.. ....
....|..|--- .... ....|--- .... ....|--- .... ....
.440|..|--- .... ....|C-4 2... ....|C-4 .8.. ....
.450|.6|C-4 ...C ....|C-4 7... ....|C-4 3A.C ....
....|..|C-4 ...F ....|C-4 6... ....|C-4 2F.. ....
....|..|--- .... ....|C-4 ...C ....|C-4 3..8 ....
....|..|--- .... ....|C-4 2... ....|C-4 2..A ....
.110|..|C-4 .... ....|C-4 6... ....|C-4 .A.C ....
....|.6|--- .... ....|C-4 7..F ....|--- .... ....
....|..|--- .... ....|--- .... ....|--- .... ....
.140|..|C-4 .... ....|--- .... ....|C-4 .8.. ....
....|..|--- .... ....|C-4 6... ....|--- .... ....
.130|..|--- .... ....|C-4 2..C ....|C-4 .8.. ....
..90|..|C-4 ...C ....|C-4 6... ....|C-4 3A.. ....
....|..|--- .... ....|C-4 2..F ....|C-4 2F.8 ....
....|..|--- .... ....|C-4 6... ....|C-4 3... ....
.500|.6|C-4 .... ....|C-4 7... ....|C-4 24.C ....
....|..|--- .... ....|--- .... ....|--- .... ....
.100|..|C-4 ...F ....|C-4 6..C ....|C-4 .E.. ....
....|..|--- .... ....|--- .... ....|--- .... ....
..70|..|C-4 .... ....|C-4 ...F ....|C-4 .E.. ....
..70|..|--- .... ....|C-4 2..C ....|C-4 .C.. ....
....|..|--- .... ....|C-4 6... ....|--- .... ....
.500|..|--- .... ....|C-4 2... ....|C-4 .C.. ....
.300|.6|C-4 .... ....|C-4 7..F ....|C-4 .E.. ....
....|..|--- .... ....|--- .... ....|C-4 .F.8 ....
....|..|C-4 ...C ....|C-4 6... ....|C-4 ...A ....
....|..|--- .... ....|--- .... ....|--- .... ....
....|..|C-4 .... ....|C-4 ...C ....|C-4 ...8 ....
....|..|C-4 .... ....|C-4 ...F ....|--- .... ....
....|..|C-4 ...F ....|C-4 ...C ....|C-4 3... ....
....|..|--- .... ....|--- .... ....|--- .... ....
.100|.6|C-4 .... ....|C-4 7..F ....|C-4 2C.. ....
....|..|--- .... ....|--- .... ....|--- .... ....
..90|.6|C-4 .... ....|C-4 ...C ....|C-4 .A.. ....
.500|..|C-4 .1.C ....|--- .... ....|C-4 3C.C ....

[Pattern3]
.100|..|E-4 4F2F ....|C-4 6..F ....|C-4 21.C ....
....|..|--- .... ....|C-4 ...C ....|--- .... ....
.100|..|B-4 .... ....|C-4 2... ....|C-4 .4.. ....
.100|..|E-4 ...C ....|C-4 6..A ....|C-4 .A.. A110
....|.6|C-4 2F.8 ....|C-4 7..F ....|E-5 4F2F ....
....|..|C-4 ...A A110|--- .... ....|B-4 ...C ....
....|.6|--- .... ....|C-4 6..C ....|D-4 ...F ....
....|..|--- .... ....|C-4 ...F ....|E-5 ...C ....
.100|..|A-4 4.2F ....|C-4 2..C ....|C-4 28.. 11.A
.400|..|D-4 ...C ....|C-4 .... ....|C-4 .8.. ....
.200|..|D-5 ...F ....|C-4 6..F ....|C-4 38.. ....
....|..|A-4 ...C ....|--- .... ....|--- .... ....
....|.6|B-3 ...F ....|C-4 7... ....|C-4 .F.A ....
....|..|D-5 ...C ....|--- .... ....|--- .... ....
....|..|B-4 ...F ....|C-4 2... ....|C-4 2..8 ....
....|.6|B-3 ...C ....|C-4 7..C ....|--- .... ....
.100|..|C-4 23.. ....|C-4 6..F ....|A-3 4.2F ....
....|..|--- .... ....|C-4 2..C ....|B-4 ...C ....
....|..|--- .... ....|C-4 6... ....|A-4 ...F ....
.150|..|C-4 34.. ....|C-4 2... ....|A-3 ...C ....
..A0|.6|D-5 4F2F ....|C-4 7..F ....|C-4 25.. ....
....|..|A-4 ...C ....|--- .... ....|C-4 3F.8 ....
....|..|G-3 ...F ....|C-4 2..C ....|C-4 2... ....
....|..|D-5 ...C ....|C-4 6..F ....|--- .... ....
....|..|G-4 ...F ....|C-4 2..C ....|C-4 .... ....
....|..|G-3 ...C ....|C-4 6... ....|--- .... ....
....|..|C-4 2F.8 ....|C-4 ...F ....|B-4 4.2F ....
....|..|--- .... ....|C-4 ...C ....|G-4 ...C ....
.100|.6|F#3 4.2F ....|C-4 7..F ....|C-4 28.. ....
....|..|B-4 ...C ....|--- .... ....|--- .... ....
.440|..|B-4 ...F ....|C-4 2... ....|C-4 .8.. ....
.450|.6|F#3 ...C ....|C-4 7... ....|C-4 3A.. ....
....|..|C-4 2F.. ....|C-4 6... ....|E-3 4F2F ....
....|..|C-4 3..8 ....|C-4 ...C ....|B-4 ...C ....
....|..|C-4 2..A ....|C-4 2... ....|E-4 ...F ....
.110|..|C-4 .A.C ....|C-4 6... ....|E-3 ...C ....
....|.6|G-4 4F2F ....|C-4 7..F ....|--- .... ....
....|..|E-4 ...C ....|--- .... ....|--- .... ....
.140|..|D-3 ...F ....|--- .... ....|C-4 28.. ....
....|..|G-4 ...C ....|C-4 6... ....|--- .... ....
.130|..|C-4 28.. ....|C-4 2..C ....|D-4 4F2F ....
..90|..|C-4 3A.. ....|C-4 6... ....|D-3 ...C ....
....|..|C-4 2F.8 ....|C-4 2..F ....|A-4 ...F ....
....|..|C-4 3... ....|C-4 6... ....|D-4 ...C ....
.500|.6|C-4 24.C ....|C-4 7... ....|F#4 ...F ....
....|..|--- .... ....|--- .... ....|A-4 ...C ....
.100|..|A-4 4F2F ....|C-4 6..C ....|C-4 2E.. ....
....|..|F#4 ...C ....|--- .... ....|--- .... ....
..70|..|B-2 ...F ....|C-4 ...F ....|C-4 .E.. ....
..70|..|A-4 ...C ....|C-4 2..C ....|C-4 .C.. ....
....|..|B-3 ...F ....|C-4 6... ....|--- .... ....
.500|..|C-4 2C.C ....|C-4 2... ....|B-2 4F2. ....
.300|.6|C-4 .E.. ....|C-4 7..F ....|F#4 ...F ....
....|..|C-4 .F.8 ....|--- .... ....|B-3 ...C ....
....|..|C-4 ...A ....|C-4 6... ....|C-3 ...F ....
....|..|--- .... ....|--- .... ....|F#4 ...C ....
....|..|C-4 4.2F ....|C-4 ...C ....|C-4 2F.8 ....
....|..|C-3 ...C ....|C-4 ...F ....|--- .... ....
....|..|G-4 ...F ....|C-4 ...C ....|C-4 3... ....
....|..|C-4 ...C ....|--- .... ....|--- .... ....
.100|.6|C-4 2C.. ....|C-4 7..F ....|E-4 4.2F ....
....|..|--- .... ....|--- .... ....|G-4 ...C ....
..90|.6|C-4 .A.. ....|C-4 ...C ....|C-4 ...F ....
.500|..|C-4 3C.. ....|--- .... ....|E-4 ...C ....

[Pattern4]
.100|..|G-4 4F1F ....|C-4 6..F ....|C-4 21.C ....
....|..|--- .... ....|C-4 ...C ....|--- .... ....
.100|..|F#4 .... ....|C-4 2... ....|C-4 .4.. ....
.100|..|G-4 .... ....|C-4 6..A ....|C-4 .A.. A110
....|.6|--- .... ....|C-4 7..F ....|C-4 .F.8 ....
....|..|--- .... ....|--- .... ....|C-4 ...A A110
....|.6|A-4 .... ....|C-4 6..C ....|--- .... ....
....|..|--- .... ....|C-4 ...F ....|--- .... ....
.100|..|--- .... ....|C-4 2..C ....|C-4 .8.C 11.A
.400|..|--- .... ....|C-4 .... ....|C-4 .8.. ....
.200|..|E-4 .... ....|C-4 6..F ....|C-4 38.. ....
....|..|--- .... ....|--- .... ....|--- .... ....
....|.6|--- .... ....|C-4 7... ....|C-4 .F.A ....
....|..|--- .... ....|--- .... ....|--- .... ....
....|..|A-4 .... ....|C-4 2... ....|C-4 2..8 ....
....|.6|--- .... ....|C-4 7..C ....|--- .... ....
.100|..|D-5 .... ....|C-4 6..F ....|C-4 .3.. ....
....|..|--- .... ....|C-4 2..C ....|--- .... ....
....|..|E-5 .... ....|C-4 6... ....|--- .... ....
.150|..|--- .... ....|C-4 2... ....|C-4 34.C ....
..A0|.6|D-5 .... ....|C-4 7..F ....|C-4 25.. ....
....|..|--- .... ....|--- .... ....|C-4 3F.8 ....
....|..|B-4 .... ....|C-4 2..C ....|C-4 2... ....
....|..|--- .... ....|C-4 6..F ....|--- .... ....
....|..|--- .... ....|C-4 2..C ....|C-4 .... ....
....|..|--- .... ....|C-4 6... ....|--- .... ....
....|..|D-5 .... ....|C-4 ...F ....|C-4 .... ....
....|..|--- .... ....|C-4 ...C ....|--- .... ....
.100|.6|G-5 .... ....|C-4 7..F ....|C-4 .8.. ....
....|..|--- .... ....|--- .... ....|--- .... ....
.440|..|F#5 .... ....|C-4 2... ....|C-4 .8.. ....
.450|.6|--- .... ....|C-4 7... ....|C-4 3A.C ....
....|..|E-5 .... ....|C-4 6... ....|C-4 2F.. ....
....|..|--- .... ....|C-4 ...C ....|C-4 3..8 ....
....|..|--- .... ....|C-4 2... ....|C-4 2..A ....
.110|..|--- .... ....|C-4 6... ....|C-4 .A.C ....
....|.6|D-5 .... ....|C-4 7..F ....|--- .... ....
....|..|--- .... ....|--- .... ....|--- .... ....
.140|..|B-4 .... ....|--- .... ....|C-4 .8.. ....
....|..|--- .... ....|C-4 6... ....|--- .... ....
.130|..|--- .... ....|C-4 2..C ....|C-4 .8.. ....
..90|..|--- .... ....|C-4 6... ....|C-4 3A.. ....
....|..|A-4 .... ....|C-4 2..F ....|C-4 2F.8 ....
....|..|--- .... ....|C-4 6... ....|C-4 3... ....
.500|.6|F#4 .... ....|C-4 7... ....|C-4 24.C ....
....|..|--- .... ....|--- .... ....|--- .... ....
.100|..|B-4 .... ....|C-4 6..C ....|C-4 .E.. ....
....|..|--- .... ....|--- .... ....|--- .... ....
..70|..|G-4 .... ....|C-4 ...F ....|C-4 .E.. ....
..70|..|--- .... ....|C-4 2..C ....|C-4 .C.. ....
....|..|--- .... ....|C-4 6... ....|--- .... ....
.500|..|--- .... ....|C-4 2... ....|C-4 .C.. ....
.300|.6|F#4 .... ....|C-4 7..F ....|C-4 .E.. ....
....|..|--- .... ....|--- .... ....|C-4 .F.8 ....
....|..|D-4 .... ....|--- .... ....|C-4 ...A ....
....|.6|--- .... ....|C-4 ...A ....|--- .... ....
....|..|--- .... ....|--- .... ....|C-4 ...8 ....
....|..|--- .... ....|--- .... ....|--- .... ....
....|.6|--- .... ....|C-4 ...C ....|C-4 3... ....
....|..|--- .... ....|--- .... ....|--- .... ....
.100|.6|E-4 .... ....|--- .... ....|C-4 2C.. ....
....|..|--- .... ....|C-4 .... ....|--- .... ....
..90|.6|--- .... ....|C-4 ...A ....|C-4 .A.. ....
.500|..|--- .... ....|C-4 ...C ....|C-4 3C.C ....

[Pattern5]
.100|..|--- .... ....|C-4 3F.F ....|C-4 21.F ....
....|.5|--- .... ....|--- ...C ....|--- .... ....
.100|.A|C-4 2F.A ....|--- ...A ....|C-4 .4.C ....
.100|.4|--- .... ....|--- ...9 ....|C-4 .A.F A110
....|1C|--- .... ....|--- ...8 ....|C-4 .F.8 ....
....|1F|--- .... ....|--- ...7 ....|C-4 ...A A110
..95|1F|C-4 .8.. ....|--- ...6 ....|--- .... ....
....|1F|--- .... ....|--- ...5 ....|--- .... ....
.100|1F|C-4 .F.. ....|--- ...4 ....|C-4 .8.C 11.A
.400|10|--- .... ....|--- .... ....|C-4 .8.. ....
.200|1F|C-4 ...8 ....|--- .... ....|C-4 38.F ....
....|..|C-4 .... ....|D-4 4..A ....|--- .... ....
.200|..|C-4 .A.C ....|--- .... ....|C-4 .F.A ....
....|..|--- .... ....|E-4 .... ....|--- .... ....
.300|1F|C-4 3A.F ....|--- .... ....|C-4 2..8 ....
....|..|--- .... ....|E-3 .... ....|--- .... ....
.100|1F|C-4 2F.A 21.1|--- .... ....|C-4 .3.. ....
....|14|--- .... ....|B-3 .... ....|--- .... ....
....|..|C-4 .... ....|--- .... ....|--- .... ....
.150|.5|C-4 ...8 2110|D-4 .... ....|C-4 34.C ....
..A0|.5|--- .... ....|--- .... ....|C-4 25.. ....
....|..|--- .... ....|E-4 .... ....|C-4 3F.8 ....
..20|..|C-4 .6.C ....|--- .... ....|C-4 2... ....
....|..|--- .... ....|E-3 .... ....|--- .... ....
..20|1F|C-4 .3.. ....|--- .... ....|C-4 .... ....
..30|.A|C-4 .2.. ....|B-3 .... ....|--- .... ....
.100|.C|C-4 3C.F 91A0|--- .... ....|C-4 .... ....
....|..|C-4 2F.8 ....|D-4 .... ....|--- .... ....
.100|.8|C-4 3..A 91A0|--- .... ....|C-4 .8.. ....
....|..|--- .... ....|E-4 .... ....|--- .... ....
.440|..|C-4 2... ....|--- .... ....|C-4 .8.. ....
.450|..|--- .... ....|B-3 .... ....|C-4 3A.C ....
.160|.7|C-4 .8.F ....|--- .... ....|C-4 2F.. ....
....|..|--- .... ....|D-4 .... ....|C-4 3..8 ....
.200|.6|C-4 3A.C 21.1|--- .... ....|C-4 2..A ....
.110|..|--- .... ....|B-3 .... ....|C-4 .A.F ....
....|..|C-4 .F.8 ....|--- .... ....|--- .... ....
....|..|C-4 2..A ....|E-4 .... ....|--- .... ....
.140|.4|--- .... ....|--- .... ....|C-4 .8.. ....
....|..|--- .... ....|E-3 .... ....|--- .... ....
.130|.5|C-4 .... ....|--- .... ....|C-4 .8.C ....
..90|.5|--- .... ....|B-3 .... ....|C-4 3A.. ....
.400|..|C-4 .A.F ....|--- .... ....|C-4 2F.8 ....
....|.5|--- .... ....|D-4 .... ....|C-4 3... ....
.500|..|C-4 .F.A ....|--- .... ....|C-4 24.C ....
....|.6|--- .... ....|E-4 .... ....|--- .... ....
.100|..|C-4 ...8 ....|--- .... ....|C-4 .E.F ....
....|..|--- .... ....|E-3 .... ....|--- .... ....
..70|10|C-4 ...A ....|--- .... ....|C-4 .E.. ....
..70|10|--- .... ....|B-3 .... ....|C-4 .C.C ....
....|10|C-4 .... ....|--- .... ....|--- .... ....
.500|..|C-4 ...8 ....|D-4 .... ....|C-4 .C.. ....
.300|..|--- .... ....|--- .... ....|C-4 .E.F ....
....|1F|--- .... ....|E-4 .... ....|C-4 .F.8 ....
.140|..|C-4 .E.C ....|--- .... ....|C-4 ...A ....
....|..|--- .... ....|E-3 .... ....|--- .... ....
.130|1F|C-4 3E.. ....|--- .... ....|C-4 ...8 ....
.100|..|C-4 .C.. ....|B-3 .... ....|--- .... ....
.300|11|C-4 2D.F ....|--- .... ....|C-4 3... ....
....|..|C-4 3F.8 ....|D-4 .... ....|--- .... ....
.100|..|C-4 2..A ....|--- .... ....|C-4 2C.. ....
....|..|--- .... ....|E-4 .... ....|--- .... ....
..90|14|C-4 .... ....|--- .... ....|C-4 .A.. ....
.500|..|--- .... ....|B-3 .... ....|C-4 3C.C ....

[Pattern6]
.100|..|--- .... ....|--- .... ....|C-4 21.F ....
....|.5|--- .... ....|--- .... ....|--- .... ....
.100|.A|C-4 2F.A ....|--- .... ....|C-4 .4.C ....
.100|.4|--- .... ....|--- .... ....|C-4 .A.F A110
....|1C|--- .... ....|--- .... ....|C-4 .F.8 ....
....|1F|--- .... ....|--- .... ....|C-4 ...A A110
..95|1F|C-4 .8.. ....|--- .... ....|--- .... ....
....|1F|--- .... ....|--- .... ....|--- .... ....
.100|1F|C-4 .F.. ....|--- .... ....|C-4 .8.C 11.A
.400|10|--- .... ....|--- .... ....|C-4 .8.. ....
.200|1F|C-4 ...8 ....|--- .... ....|C-4 38.F ....
....|..|C-4 .... ....|D-4 4F.A ....|--- .... ....
.200|..|C-4 .A.C ....|--- .... ....|C-4 .F.A ....
....|..|--- .... ....|E-4 .... ....|--- .... ....
.300|1F|C-4 3A.F ....|--- .... ....|C-4 2..8 ....
....|..|--- .... ....|E-3 .... ....|--- .... ....
.100|1F|C-4 2F.A 21.1|--- .... ....|C-4 .3.. ....
....|14|--- .... ....|B-3 .... ....|--- .... ....
....|..|C-4 .... ....|--- .... ....|--- .... ....
.150|.5|C-4 ...8 2110|D-4 .... ....|C-4 34.C ....
..A0|.5|--- .... ....|--- .... ....|C-4 25.. ....
....|..|--- .... ....|E-4 .... ....|C-4 3F.8 ....
..20|..|C-4 .6.C ....|--- .... ....|C-4 2... ....
....|..|--- .... ....|E-3 .... ....|--- .... ....
..20|1F|C-4 .3.. ....|--- .... ....|C-4 .... ....
..30|.A|C-4 .2.. ....|B-3 .... ....|--- .... ....
.100|.C|C-4 3C.F 91A0|--- .... ....|C-4 .... ....
....|..|C-4 2F.8 ....|D-4 .... ....|--- .... ....
.100|.8|C-4 3..A 91A0|--- .... ....|C-4 .8.. ....
....|..|--- .... ....|E-4 .... ....|--- .... ....
.440|..|C-4 2... ....|--- .... ....|C-4 .8.. ....
.450|..|--- .... ....|B-3 .... ....|C-4 3A.C ....
.160|.7|C-4 .8.F ....|--- .... ....|C-4 2F.. ....
....|..|--- .... ....|D-4 .... ....|C-4 3..8 ....
.200|.6|C-4 3A.C 21.1|--- .... ....|C-4 2..A ....
.110|..|--- .... ....|B-3 .... ....|C-4 .A.F ....
....|..|C-4 .F.8 ....|--- .... ....|--- .... ....
....|..|C-4 2..A ....|E-4 .... ....|--- .... ....
.140|.4|--- .... ....|--- .... ....|C-4 .8.. ....
....|..|--- .... ....|E-3 .... ....|--- .... ....
.130|.5|C-4 .... ....|--- .... ....|C-4 .8.C ....
..90|.5|--- .... ....|B-3 .... ....|C-4 3A.. ....
.400|..|C-4 .A.F ....|--- .... ....|C-4 2F.8 ....
....|.5|--- .... ....|D-4 .... ....|C-4 3... ....
.500|..|C-4 .F.A ....|--- .... ....|C-4 24.C ....
....|.6|--- .... ....|E-4 .... ....|--- .... ....
.100|..|C-4 ...8 ....|--- .... ....|C-4 .E.F ....
....|..|--- .... ....|E-3 .... ....|--- .... ....
..70|10|C-4 ...A ....|--- .... ....|C-4 .E.. ....
..70|10|--- .... ....|B-3 .... ....|C-4 .C.C ....
....|10|C-4 .... ....|--- .... ....|--- .... ....
.500|..|C-4 ...8 ....|D-4 .... ....|C-4 .C.. ....
.300|..|--- .... ....|--- .... ....|C-4 .E.F ....
....|1F|--- .... ....|E-4 .... ....|C-4 .F.8 ....
.140|..|C-4 .E.C ....|--- .... ....|C-4 ...A ....
....|..|--- .... ....|E-3 .... ....|--- .... ....
.130|1F|C-4 3E.. ....|--- .... ....|C-4 ...8 ....
.100|..|C-4 .C.. ....|B-3 .... ....|--- .... ....
.300|11|C-4 2D.F ....|--- .... ....|C-4 3... ....
....|..|C-4 3F.8 ....|D-4 .... ....|--- .... ....
.100|..|C-4 2..A ....|--- .... ....|C-4 2C.. ....
....|..|--- .... ....|E-4 .... ....|--- .... ....
..90|14|C-4 .... ....|--- .... ....|C-4 .A.. ....
.500|..|--- .... ....|B-3 .... ....|C-4 3C.C ....

[Pattern7]
.100|..|--- .... ....|G-6 5..F ....|C-4 21.F ....
....|.5|--- .... ....|--- .... ....|--- .... ....
.100|.A|C-4 2F.A ....|--- ...A ....|C-4 .4.C ....
.100|.4|--- .... ....|--- .... ....|C-4 .A.F A110
....|1C|--- .... ....|G-6 ...F ....|C-4 .F.8 ....
....|1F|--- .... ....|--- .... ....|C-4 ...A A110
..95|1F|C-4 .8.. ....|D-6 .... ....|--- .... ....
....|1F|--- .... ....|--- .... ....|--- .... ....
.100|1F|C-4 .F.. ....|--- ...A ....|C-4 .8.C 11.A
.400|10|--- .... ....|--- .... ....|C-4 .8.. ....
.200|1F|C-4 ...8 ....|D-6 ...F ....|C-4 38.F ....
....|..|C-4 .... ....|--- .... ....|--- .... ....
.200|..|C-4 .A.C ....|--- ...A ....|C-4 .F.A ....
....|..|D-6 5F.A ....|--- .... ....|--- .... ....
.300|1F|C-4 3A.F ....|D-6 ...F ....|C-4 2..8 ....
....|..|--- .... ....|--- .... ....|--- .... ....
.100|1F|C-4 2F.A 21.1|E-6 .... ....|C-4 .3.. ....
....|14|--- .... ....|--- .... ....|--- .... ....
....|..|C-4 .... ....|--- ...A ....|--- .... ....
.150|.5|C-4 ...8 2110|--- .... ....|C-4 34.C ....
..A0|.5|--- .... ....|E-6 ...F ....|C-4 25.. ....
....|..|--- .... ....|--- .... ....|C-4 3F.8 ....
..20|..|C-4 .6.C ....|G-5 .... ....|C-4 2... ....
....|..|--- .... ....|--- .... ....|--- .... ....
..20|1F|C-4 .3.. ....|--- ...A ....|C-4 .... ....
..30|.A|C-4 .2.. ....|--- .... ....|--- .... ....
.100|.C|C-4 3C.F 91A0|G-5 ...F ....|C-4 .... ....
....|..|C-4 2F.8 ....|--- .... ....|--- .... ....
.100|.8|C-4 3..A 91A0|A-5 .... ....|C-4 .8.. ....
....|..|G-5 5..7 ....|--- .... ....|--- .... ....
.440|..|C-4 2... ....|--- ...A ....|C-4 .8.. ....
.450|..|--- .... ....|--- .... ....|C-4 3A.C ....
.160|.7|C-4 .8.F ....|B-5 ...F ....|C-4 2F.. ....
....|..|--- .... ....|--- .... ....|C-4 3..8 ....
.200|.6|C-4 3A.C 21.1|--- ...A ....|C-4 2..A ....
.110|..|--- .... ....|--- .... ....|C-4 .A.F ....
....|..|C-4 .F.8 ....|B-5 ...F ....|--- .... ....
....|..|C-4 2..A ....|--- .... ....|--- .... ....
.140|.4|--- .... ....|E-5 .... ....|C-4 .8.. ....
....|..|--- .... ....|--- .... ....|--- .... ....
.130|.5|C-4 .... ....|--- ...A ....|C-4 .8.C ....
..90|.5|--- .... ....|--- .... ....|C-4 3A.. ....
.400|..|C-4 .A.F ....|E-5 ...F ....|C-4 2F.8 ....
....|.5|--- .... ....|--- .... ....|C-4 3... ....
.500|..|C-4 .F.A ....|G-5 .... ....|C-4 24.C ....
....|.6|--- .... ....|--- .... ....|--- .... ....
.100|..|C-4 ...8 ....|F#5 .... ....|C-4 .E.F ....
....|..|--- .... ....|--- .... ....|--- .... ....
..70|10|C-4 ...A ....|D-5 .... ....|C-4 .E.. ....
..70|10|G-5 5..7 ....|--- .... ....|C-4 .C.C ....
....|10|C-4 2... ....|--- ...A ....|--- .... ....
.500|..|C-4 ...8 ....|--- .... ....|C-4 .C.. ....
.300|..|F#5 5..9 ....|D-5 ...F ....|C-4 .E.F ....
....|1F|--- .... ....|--- .... ....|C-4 .F.8 ....
.140|..|C-4 2E.C ....|B-4 .... ....|C-4 ...A ....
....|..|--- .... ....|--- .... ....|--- .... ....
.130|1F|C-4 3E.. ....|--- ...A ....|C-4 ...8 ....
.100|..|C-4 .C.. ....|--- .... ....|--- .... ....
.300|11|C-4 2D.F ....|B-4 ...F ....|C-4 3... ....
....|..|C-4 3F.8 ....|--- .... ....|--- .... ....
.100|..|C-4 2..A ....|G-4 .... ....|C-4 2C.. ....
....|..|--- .... ....|--- .... ....|--- .... ....
..90|14|C-4 .... ....|--- ...A ....|C-4 .A.. ....
.500|..|--- .... ....|--- .... ....|C-4 3C.C ....

[Pattern8]
.100|..|--- .... ....|G-6 5..F ....|C-4 21.F ....
....|.5|--- .... ....|--- .... ....|--- .... ....
.100|.A|C-4 2F.A ....|--- ...A ....|C-4 .4.C ....
.100|.4|--- .... ....|--- .... ....|C-4 .A.F A110
....|1C|--- .... ....|G-6 ...F ....|C-4 .F.8 ....
....|1F|--- .... ....|--- .... ....|C-4 ...A A110
..95|1F|C-4 .8.. ....|D-6 .... ....|G-6 5..8 ....
....|1F|--- .... ....|--- .... ....|--- .... ....
.100|1F|C-4 .F.. ....|--- ...A ....|C-4 28.C 11.A
.400|10|--- .... ....|--- .... ....|C-4 .8.. ....
.200|1F|C-4 ...8 ....|--- ...F ....|C-4 38.F ....
....|..|C-4 .... ....|--- .... ....|--- .... ....
.200|..|C-4 .A.C ....|A-6 .... ....|C-4 .F.A ....
....|..|--- .... ....|--- .... ....|--- .... ....
.300|1F|C-4 3A.F ....|--- ...A ....|C-4 2..8 ....
....|..|--- .... ....|--- .... ....|--- .... ....
.100|1F|C-4 2F.A 21.1|G-6 ...F ....|C-4 .3.. ....
....|14|--- .... ....|--- .... ....|A-6 5F.. ....
....|..|C-4 .... ....|--- ...A ....|--- .... ....
.150|.5|C-4 ...8 2110|--- .... ....|C-4 34.C ....
..A0|.5|--- .... ....|B-6 ...F ....|C-4 25.. ....
....|..|--- .... ....|--- .... ....|C-4 3F.8 ....
..20|..|C-4 .6.C ....|E-6 .... ....|C-4 2... ....
....|..|--- .... ....|--- .... ....|--- .... ....
..20|1F|C-4 .3.. ....|--- ...A ....|C-4 .... ....
..30|.A|C-4 .2.. ....|--- .... ....|--- .... ....
.100|.C|C-4 3C.F 91A0|--- ...F ....|C-4 .... ....
....|..|C-4 2F.8 ....|--- .... ....|--- .... ....
.100|.8|C-4 3..A 91A0|--- ...A ....|C-4 .8.. ....
....|..|--- .... ....|--- .... ....|--- .... ....
.440|..|C-4 2... ....|--- ...C ....|C-4 .8.. ....
.450|..|--- .... ....|--- .... ....|C-4 3A.C ....
.160|.7|C-4 .8.F ....|B-5 ...F ....|C-4 2F.. ....
....|..|--- .... ....|--- .... ....|C-4 3..8 ....
.200|.6|C-4 3A.C 21.1|--- ...A ....|C-4 2..A ....
.110|..|--- .... ....|--- .... ....|C-4 .A.F ....
....|..|C-4 .F.8 ....|--- ...F ....|--- .... ....
....|..|C-4 2..A ....|--- .... ....|--- .... ....
.140|.4|B-5 5... ....|G-5 .... ....|C-4 .8.. ....
....|..|--- .... ....|--- .... ....|--- .... ....
.130|.5|C-4 2... ....|--- ...A ....|C-4 .8.C ....
..90|.5|--- .... ....|--- .... ....|C-4 3A.. ....
.400|..|C-4 .A.F ....|--- ...F ....|C-4 2F.8 ....
....|.5|--- .... ....|--- .... ....|C-4 3... ....
.500|..|C-4 .F.A ....|E-5 .... ....|C-4 24.C ....
....|.6|--- .... ....|--- .... ....|--- .... ....
.100|..|C-4 ...8 ....|--- ...A ....|C-4 .E.F ....
....|..|--- .... ....|--- .... ....|--- .... ....
..70|10|C-4 ...A ....|--- ...F ....|C-4 .E.. ....
..70|10|--- .... ....|--- .... ....|C-4 .C.C ....
....|10|C-4 .... ....|--- ...A ....|--- .... ....
.500|..|C-4 ...8 ....|--- .... ....|C-4 .C.. ....
.300|..|E-5 4..A ....|--- ...C ....|C-4 .E.F ....
....|1F|--- .... ....|--- .... ....|C-4 .F.8 ....
.140|..|C-4 2E.C ....|--- ...A ....|C-4 ...A ....
....|..|--- .... ....|--- .... ....|--- .... ....
.130|1F|C-4 3E.. ....|E-5 ...C ....|C-4 ...8 ....
.100|..|C-4 .C.. ....|--- .... ....|--- .... ....
.300|11|C-4 2D.F ....|--- ...8 ....|C-4 3... ....
....|..|C-4 3F.8 ....|--- .... ....|--- .... ....
.100|..|C-4 2..A ....|--- ...A ....|C-4 2C.. ....
....|..|--- .... ....|--- .... ....|--- .... ....
..90|14|C-4 .... ....|--- ...5 ....|C-4 .A.. ....
.500|..|--- .... ....|--- .... ....|C-4 3C.C ....

[Pattern9]
.100|..|--- .... ....|--- ...7 ....|C-4 21.F ....
....|.5|--- .... ....|--- .... ....|--- .... ....
.100|.A|C-4 2F.A ....|--- ...3 ....|C-4 .4.C ....
.100|.4|--- .... ....|--- .... ....|C-4 .A.F A110
....|1C|--- .... ....|--- ...6 ....|C-4 .F.8 ....
....|1F|--- .... ....|--- .... ....|C-4 ...A A110
..95|1F|C-4 .8.. ....|--- ...2 ....|--- .... ....
....|1F|--- .... ....|--- .... ....|--- .... ....
.100|1F|C-4 .F.. ....|--- ...4 ....|C-4 .8.C 11.A
.400|10|--- .... ....|--- .... ....|C-4 .8.. ....
.200|1F|C-4 ...8 ....|--- ...1 ....|C-4 38.F ....
....|..|C-4 .... ....|--- .... ....|--- .... ....
.200|..|C-4 .A.C ....|R-- .... ....|C-4 .F.A ....
....|..|--- .... ....|--- .... ....|--- .... ....
.300|1F|C-4 3A.F ....|--- .... ....|C-4 2..8 ....
....|..|--- .... ....|--- .... ....|--- .... ....
.100|1F|C-4 2F.A 21.1|--- .... ....|C-4 .3.. ....
....|14|--- .... ....|--- .... ....|--- .... ....
....|..|C-4 .... ....|--- .... ....|--- .... ....
.150|.5|C-4 ...8 2110|--- .... ....|C-4 34.C ....
..A0|.5|--- .... ....|--- .... ....|C-4 25.. ....
....|..|--- .... ....|--- .... ....|C-4 3F.8 ....
..20|..|C-4 .6.C ....|--- .... ....|C-4 2... ....
....|..|--- .... ....|--- .... ....|--- .... ....
..20|1F|C-4 .3.. ....|--- .... ....|C-4 .... ....
..30|.A|C-4 .2.. ....|--- .... ....|--- .... ....
.100|.C|C-4 3C.F 91A0|--- .... ....|C-4 .... ....
....|..|C-4 2F.8 ....|--- .... ....|--- .... ....
.100|.8|C-4 3..A 91A0|--- .... ....|C-4 .8.. ....
....|..|--- .... ....|--- .... ....|--- .... ....
.440|..|C-4 2... ....|--- .... ....|C-4 .8.. ....
.450|..|--- .... ....|--- .... ....|C-4 3A.C ....
.160|.7|C-4 .8.F ....|--- .... ....|C-4 2F.. ....
....|..|--- .... ....|--- .... ....|C-4 3..8 ....
.200|.6|C-4 3A.C 21.1|--- .... ....|C-4 2..A ....
.110|..|--- .... ....|--- .... ....|C-4 .A.F ....
....|..|C-4 .F.8 ....|--- .... ....|--- .... ....
....|..|C-4 2..A ....|--- .... ....|--- .... ....
.140|.4|--- .... ....|--- .... ....|C-4 .8.. ....
....|..|--- .... ....|--- .... ....|--- .... ....
.130|.5|C-4 .... ....|--- .... ....|C-4 .8.C ....
..90|.5|--- .... ....|--- .... ....|C-4 3A.. ....
.400|..|C-4 .A.F ....|--- .... ....|C-4 2F.8 ....
....|.5|--- .... ....|--- .... ....|C-4 3... ....
.500|..|C-4 .F.A ....|--- .... ....|C-4 24.C ....
....|.6|--- .... ....|--- .... ....|--- .... ....
.100|..|C-4 ...8 ....|--- .... ....|C-4 .E.F ....
....|..|--- .... ....|--- .... ....|--- .... ....
..70|10|C-4 ...A ....|--- .... ....|C-4 .E.. ....
..70|10|--- .... ....|--- .... ....|C-4 .C.C ....
....|10|C-4 .... ....|--- .... ....|--- .... ....
.500|..|C-4 ...8 ....|--- .... ....|C-4 .C.. ....
.300|..|--- .... ....|--- .... ....|C-4 .E.F ....
....|1F|--- .... ....|--- .... ....|C-4 .F.8 ....
.140|..|C-4 .E.C ....|--- .... ....|C-4 ...A ....
....|..|--- .... ....|--- .... ....|--- .... ....
.130|1F|C-4 3E.. ....|--- .... ....|C-4 ...8 ....
.100|..|C-4 .C.. ....|--- .... ....|--- .... ....
.300|11|C-4 2D.F ....|--- .... ....|C-4 3... ....
....|..|C-4 3F.8 ....|--- .... ....|--- .... ....
.100|..|C-4 2..A ....|--- .... ....|C-4 2C.. ....
....|..|--- .... ....|--- .... ....|--- .... ....
..90|14|C-4 .... ....|--- .... ....|C-4 .A.. ....
.500|..|--- .... ....|--- .... ....|C-4 3C.C ....

[Pattern10]
.100|..|--- .... ....|E-5 5F.A ....|C-4 21.F ....
....|.5|--- .... ....|--- .... ....|--- .... ....
.100|.A|C-4 2F.A ....|--- .... ....|C-4 .4.C ....
.100|.4|--- .... ....|--- .... ....|C-4 .A.F A110
....|1C|--- .... ....|--- .... ....|C-4 .F.8 ....
....|1F|--- .... ....|--- .... ....|C-4 ...A A110
..95|1F|C-4 .8.. ....|--- .... ....|--- .... ....
....|1F|--- .... ....|--- .... ....|--- .... ....
.100|1F|C-4 .F.. ....|--- .... ....|C-4 .8.C 11.A
.400|10|--- .... ....|--- .... ....|C-4 .8.. ....
.200|1F|C-4 ...8 ....|--- .... ....|C-4 38.F ....
....|..|C-4 .... ....|--- .... ....|--- .... ....
.200|..|C-4 .A.C ....|E-4 .... ....|C-4 .F.A ....
....|..|--- .... ....|--- .... ....|--- .... ....
.300|1F|C-4 3A.F ....|--- .... ....|C-4 2..8 ....
....|..|--- .... ....|--- .... ....|--- .... ....
.100|1F|C-4 2F.A 21.1|--- .... ....|C-4 .3.. ....
....|14|--- .... ....|--- .... ....|--- .... ....
....|..|C-4 .... ....|--- .... ....|--- .... ....
.150|.5|C-4 ...8 2110|--- .... ....|C-4 34.C ....
..A0|.5|--- .... ....|--- .... ....|C-4 25.. ....
....|..|--- .... ....|--- .... ....|C-4 3F.8 ....
..20|..|C-4 .6.C ....|--- .... ....|C-4 2... ....
....|..|--- .... ....|--- .... ....|--- .... ....
..20|1F|C-4 .3.. ....|--- .... ....|C-4 .... ....
..30|.A|C-4 .2.. ....|--- .... ....|--- .... ....
.100|.C|C-4 3C.F 91A0|--- .... ....|C-4 .... ....
....|..|C-4 2F.8 ....|--- .... ....|--- .... ....
.100|.8|C-4 3..A 91A0|--- .... ....|C-4 .8.. ....
....|..|--- .... ....|--- .... ....|--- .... ....
.440|..|C-4 2... ....|--- .... ....|C-4 .8.. ....
.450|..|--- .... ....|--- .... ....|C-4 3A.C ....
.160|.7|C-4 .8.F ....|--- .... ....|C-4 2F.. ....
....|..|--- .... ....|--- .... ....|C-4 3..8 ....
.200|.6|C-4 3A.C 21.1|--- .... ....|C-4 2..A ....
.110|..|--- .... ....|--- .... ....|C-4 .A.F ....
....|..|C-4 .F.8 ....|--- .... ....|--- .... ....
....|..|C-4 2..A ....|--- .... ....|--- .... ....
.140|.4|--- .... ....|G-4 .... ....|C-4 .8.. ....
....|..|--- .... ....|--- .... ....|--- .... ....
.130|.5|C-4 .... ....|--- .... ....|C-4 .8.C ....
..90|.5|--- .... ....|--- .... ....|C-4 3A.. ....
.400|..|C-4 .A.F ....|--- .... ....|C-4 2F.8 ....
....|.5|--- .... ....|--- .... ....|C-4 3... ....
.500|..|C-4 .F.A ....|--- .... ....|C-4 24.C ....
....|.6|--- .... ....|--- .... ....|--- .... ....
.100|..|C-4 ...8 ....|--- .... ....|C-4 .E.F ....
....|..|--- .... ....|--- .... ....|--- .... ....
..70|10|C-4 ...A ....|--- .... ....|C-4 .E.. ....
..70|10|--- .... ....|--- .... ....|C-4 .C.C ....
....|10|C-4 .... ....|--- .... ....|--- .... ....
.500|..|C-4 ...8 ....|--- .... ....|C-4 .C.. ....
.300|..|--- .... ....|E-4 .... ....|C-4 .E.F ....
....|1F|--- .... ....|--- .... ....|C-4 .F.8 ....
.140|..|C-4 .E.C ....|--- .... ....|C-4 ...A ....
....|..|--- .... ....|--- .... ....|--- .... ....
.130|1F|C-4 3E.. ....|--- .... ....|C-4 ...8 ....
.100|..|C-4 .C.. ....|--- .... ....|--- .... ....
.300|11|C-4 2D.F ....|--- .... ....|C-4 3... ....
....|..|C-4 3F.8 ....|--- .... ....|--- .... ....
.100|..|C-4 2..A ....|--- .... ....|C-4 2C.. ....
....|..|--- .... ....|--- .... ....|--- .... ....
..90|14|C-4 .... ....|--- .... ....|C-4 .A.. ....
.500|..|--- .... ....|--- .... ....|C-4 3C.C ....

[Pattern11]
.100|..|--- .... ....|E-5 5F.A ....|C-4 21.F ....
....|.5|--- .... ....|--- .... ....|--- .... ....
.100|.A|C-4 2F.A ....|--- .... ....|C-4 .4.C ....
.100|.4|--- .... ....|--- .... ....|C-4 .A.F A110
....|1C|--- .... ....|--- .... ....|C-4 .F.8 ....
....|1F|--- .... ....|--- .... ....|C-4 ...A A110
..95|1F|C-4 .8.. ....|--- .... ....|--- .... ....
....|1F|--- .... ....|--- .... ....|--- .... ....
.100|1F|C-4 .F.. ....|--- .... ....|C-4 .8.C 11.A
.400|10|--- .... ....|--- .... ....|C-4 .8.. ....
.200|1F|C-4 ...8 ....|--- .... ....|C-4 38.F ....
....|..|C-4 .... ....|--- .... ....|--- .... ....
.200|..|C-4 .A.C ....|E-4 .... ....|C-4 .F.A ....
....|..|--- .... ....|--- .... ....|--- .... ....
.300|1F|C-4 3A.F ....|--- .... ....|C-4 2..8 ....
....|..|--- .... ....|--- .... ....|--- .... ....
.100|1F|C-4 2F.A 21.1|--- .... ....|C-4 .3.. ....
....|14|--- .... ....|--- .... ....|--- .... ....
....|..|C-4 .... ....|--- .... ....|--- .... ....
.150|.5|C-4 ...8 2110|--- .... ....|C-4 34.C ....
..A0|.5|--- .... ....|--- .... ....|C-4 25.. ....
....|..|--- .... ....|--- .... ....|C-4 3F.8 ....
..20|..|C-4 .6.C ....|--- .... ....|C-4 2... ....
....|..|--- .... ....|--- .... ....|--- .... ....
..20|1F|C-4 .3.. ....|--- .... ....|C-4 .... ....
..30|.A|C-4 .2.. ....|--- .... ....|--- .... ....
.100|.C|C-4 3C.F 91A0|--- .... ....|C-4 .... ....
....|..|C-4 2F.8 ....|--- .... ....|--- .... ....
.100|.8|C-4 3..A 91A0|--- .... ....|C-4 .8.. ....
....|..|--- .... ....|--- .... ....|--- .... ....
.440|..|C-4 2... ....|--- .... ....|C-4 .8.. ....
.450|..|--- .... ....|--- .... ....|C-4 3A.C ....
.160|.7|C-4 .8.F ....|--- .... ....|C-4 2F.. ....
....|..|--- .... ....|--- .... ....|C-4 3..8 ....
.200|.6|C-4 3A.C 21.1|--- .... ....|C-4 2..A ....
.110|..|--- .... ....|--- .... ....|C-4 .A.F ....
....|..|C-4 .F.8 ....|--- .... ....|--- .... ....
....|..|C-4 2..A ....|--- .... ....|--- .... ....
.140|.4|--- .... ....|G-4 .... ....|C-4 .8.. ....
....|..|--- .... ....|--- .... ....|--- .... ....
.130|.5|C-4 .... ....|--- .... ....|C-4 .8.C ....
..90|.5|--- .... ....|--- .... ....|C-4 3A.. ....
.400|..|C-4 .A.F ....|--- .... ....|C-4 2F.8 ....
....|.5|--- .... ....|--- .... ....|C-4 3... ....
.500|..|C-4 .F.A ....|--- .... ....|C-4 24.C ....
....|.6|--- .... ....|--- .... ....|--- .... ....
.100|..|C-4 ...8 ....|--- .... ....|C-4 .E.F ....
....|..|--- .... ....|--- .... ....|--- .... ....
..70|10|C-4 ...A ....|--- .... ....|C-4 .E.. ....
..70|10|--- .... ....|--- .... ....|C-4 .C.C ....
....|10|C-4 .... ....|--- .... ....|--- .... ....
.500|..|C-4 ...8 ....|--- .... ....|C-4 .C.. ....
.300|..|--- .... ....|E-4 .... ....|C-4 .E.F ....
....|1F|--- .... ....|--- .... ....|C-4 .F.8 ....
.140|..|C-4 .E.C ....|--- .... ....|C-4 ...A ....
....|..|--- .... ....|--- .... ....|--- .... ....
.130|1F|C-4 3E.. ....|--- .... ....|C-4 ...8 ....
.100|..|C-4 .C.. ....|--- .... ....|--- .... ....
.300|11|C-4 2D.F ....|--- .... ....|C-4 3... ....
....|..|C-4 3F.8 ....|--- .... ....|--- .... ....
.100|..|C-4 2..A ....|--- .... ....|C-4 2C.. ....
....|..|--- .... ....|--- .... ....|--- .... ....
..90|14|C-4 .... ....|--- .... ....|C-4 .A.. ....
.500|..|--- .... ....|--- .... ....|C-4 3C.C ....

[Pattern12]
.100|..|C-4 21.C ....|E-5 5F.A ....|E-5 1F.F ....
....|.5|--- .... ....|--- .... ....|--- .... ....
.100|.A|C-4 .4.. ....|--- .... ....|E-5 ...A ....
.100|.4|C-4 .A.. A110|--- .... ....|--- .... ....
....|1C|E-5 1F.F ....|--- .... ....|C-4 2..8 ....
....|1F|--- .... ....|--- .... ....|C-4 ...A A110
....|1F|G-5 .... ....|--- .... ....|--- .... ....
....|1F|--- .... ....|--- .... ....|--- .... ....
.100|1F|G-5 ...A ....|--- .... ....|C-4 .8.C 11.A
.400|10|--- .... ....|--- .... ....|C-4 .8.. ....
.200|1F|G-5 ...F ....|--- .... ....|C-4 38.. ....
....|..|--- .... ....|--- .... ....|--- .... ....
....|..|C-4 3..A ....|E-4 .... ....|G-5 1F.A ....
....|..|--- .... ....|--- .... ....|--- .... ....
....|1F|C-4 2..8 ....|--- .... ....|G-5 ...C ....
....|..|--- .... ....|--- .... ....|--- .... ....
.100|1F|A-5 1..F ....|--- .... ....|C-4 23.. ....
....|14|--- .... ....|--- .... ....|--- .... ....
....|..|A-5 ...A ....|--- .... ....|--- .... ....
.150|.5|--- .... ....|--- .... ....|C-4 34.. ....
..A0|.5|A-5 ...F ....|--- .... ....|C-4 25.. ....
....|..|--- .... ....|--- .... ....|C-4 3F.8 ....
....|..|D-6 .... ....|--- .... ....|C-4 2... ....
....|..|--- .... ....|--- .... ....|--- .... ....
....|1F|C-4 2..8 ....|--- .... ....|D-6 1..A ....
....|.A|--- .... ....|--- .... ....|--- .... ....
....|.C|C-4 .... ....|--- .... ....|E-6 ...F ....
....|..|--- .... ....|--- .... ....|--- .... ....
.100|.8|E-6 1..A ....|--- .... ....|C-4 28.. ....
....|..|--- .... ....|--- .... ....|--- .... ....
.440|..|E-6 ...C ....|--- .... ....|C-4 .8.. ....
.450|..|--- .... ....|--- .... ....|C-4 3A.C ....
....|.7|E-5 ...F ....|--- .... ....|C-4 2F.. ....
....|..|--- .... ....|--- .... ....|C-4 3..8 ....
....|.6|E-5 ...A ....|--- .... ....|C-4 2..A ....
.110|..|--- .... ....|--- .... ....|C-4 .A.C ....
....|..|E-5 ...F ....|--- .... ....|--- .... ....
....|..|--- .... ....|--- .... ....|--- .... ....
.140|.4|C-4 28.. ....|G-4 .... ....|A-4 1F.F ....
....|..|--- .... ....|--- .... ....|--- .... ....
.130|.5|A-4 1F.A ....|--- .... ....|C-4 28.C ....
..90|.5|--- .... ....|--- .... ....|C-4 3A.. ....
....|..|A-4 ...F ....|--- .... ....|C-4 2F.8 ....
....|.5|--- .... ....|--- .... ....|C-4 3... ....
.500|..|A-4 ...A ....|--- .... ....|C-4 24.C ....
....|.6|--- .... ....|--- .... ....|--- .... ....
.100|..|C-4 2E.C ....|--- .... ....|A-4 1F.. ....
....|..|--- .... ....|--- .... ....|--- .... ....
..70|10|B-4 1F.F ....|--- .... ....|C-4 2E.. ....
..70|10|--- .... ....|--- .... ....|C-4 .C.. ....
....|10|B-4 ...A ....|--- .... ....|--- .... ....
.500|..|--- .... ....|--- .... ....|C-4 .C.. ....
.300|..|B-4 ...C ....|E-4 .... ....|C-4 .E.. ....
....|1F|--- .... ....|--- .... ....|C-4 .F.8 ....
....|..|B-4 ...A ....|--- .... ....|C-4 ...A ....
....|..|--- .... ....|--- .... ....|--- .... ....
....|1F|C-4 2..8 ....|--- .... ....|B-4 1..C ....
....|..|--- .... ....|--- .... ....|--- .... ....
....|11|B-4 1... ....|--- .... ....|C-4 3..8 ....
....|..|--- .... ....|--- .... ....|--- .... ....
.100|..|C-4 2C.. ....|--- .... ....|B-4 1..A ....
....|..|--- .... ....|--- .... ....|--- .... ....
..90|14|B-4 1F.5 ....|--- .... ....|C-4 2A.. ....
.500|..|--- .... ....|--- .... ....|C-4 3C.C ....

[Pattern13]
.100|..|C-4 21.C ....|C-4 6..F ....|E-5 1F.F ....
....|..|--- .... ....|C-4 ...C ....|--- .... ....
.100|..|C-4 .4.. ....|C-4 2... ....|E-5 ...A ....
.100|..|C-4 .A.. A110|C-4 6..A ....|--- .... ....
....|.6|E-5 1F.F ....|C-4 7..F ....|C-4 2..8 ....
....|..|--- .... ....|--- .... ....|C-4 ...A A110
....|.6|G-5 .... ....|C-4 6..C ....|--- .... ....
....|..|--- .... ....|C-4 ...F ....|--- .... ....
.100|..|G-5 ...A ....|C-4 2..C ....|C-4 .8.C 11.A
.400|..|--- .... ....|C-4 .... ....|C-4 .8.. ....
.200|..|G-5 ...F ....|C-4 6..F ....|C-4 38.. ....
....|..|--- .... ....|--- .... ....|--- .... ....
....|.6|C-4 3..A ....|C-4 7... ....|G-5 1F.A ....
....|..|--- .... ....|--- .... ....|--- .... ....
....|..|C-4 2..8 ....|C-4 2... ....|G-5 ...C ....
....|.6|--- .... ....|C-4 7..C ....|--- .... ....
.100|..|A-5 1..F ....|C-4 6..F ....|C-4 23.. ....
....|..|--- .... ....|C-4 2..C ....|--- .... ....
....|..|A-5 ...A ....|C-4 6... ....|--- .... ....
.150|..|--- .... ....|C-4 2... ....|C-4 34.. ....
..A0|.6|A-5 ...F ....|C-4 7..F ....|C-4 25.. ....
....|..|--- .... ....|--- .... ....|C-4 3F.8 ....
....|..|D-6 .... ....|C-4 2..C ....|C-4 2... ....
....|..|--- .... ....|C-4 6..F ....|--- .... ....
....|..|C-4 2..8 ....|C-4 2..C ....|D-6 1..A ....
....|..|--- .... ....|C-4 6... ....|--- .... ....
....|..|C-4 .... ....|C-4 ...F ....|E-6 ...F ....
....|..|--- .... ....|C-4 ...C ....|--- .... ....
.100|.6|E-6 1..A ....|C-4 7..F ....|C-4 28.. ....
....|..|--- .... ....|--- .... ....|--- .... ....
.440|..|E-6 ...C ....|C-4 2... ....|C-4 .8.. ....
.450|.6|--- .... ....|C-4 7... ....|C-4 3A.C ....
....|..|E-5 ...F ....|C-4 6... ....|C-4 2F.. ....
....|..|--- .... ....|C-4 ...C ....|C-4 3..8 ....
....|..|E-5 ...A ....|C-4 2... ....|C-4 2..A ....
.110|..|--- .... ....|C-4 6... ....|C-4 .A.C ....
....|.6|E-5 ...F ....|C-4 7..F ....|--- .... ....
....|..|--- .... ....|--- .... ....|--- .... ....
.140|..|C-4 28.. ....|--- .... ....|A-4 1F.F ....
....|..|--- .... ....|C-4 6... ....|--- .... ....
.130|..|A-4 1F.A ....|C-4 2..C ....|C-4 28.C ....
..90|..|--- .... ....|C-4 6... ....|C-4 3A.. ....
....|..|A-4 ...F ....|C-4 2..F ....|C-4 2F.8 ....
....|..|--- .... ....|C-4 6... ....|C-4 3... ....
.500|.6|A-4 ...A ....|C-4 7... ....|C-4 24.C ....
....|..|--- .... ....|--- .... ....|--- .... ....
.100|..|C-4 2E.C ....|C-4 6..C ....|A-4 1F.. ....
....|..|--- .... ....|--- .... ....|--- .... ....
..70|..|B-4 1F.F ....|C-4 ...F ....|C-4 2E.. ....
..70|..|--- .... ....|C-4 2..C ....|C-4 .C.. ....
....|..|B-4 ...A ....|C-4 6... ....|--- .... ....
.500|..|--- .... ....|C-4 2... ....|C-4 .C.. ....
.300|.6|B-4 ...C ....|C-4 7..F ....|C-4 .E.. ....
....|..|--- .... ....|--- .... ....|C-4 .F.8 ....
....|..|B-4 ...A ....|C-4 6... ....|C-4 ...A ....
....|.6|--- .... ....|--- .... ....|--- .... ....
....|..|C-4 2..8 ....|C-4 ...C ....|B-4 1..C ....
....|..|--- .... ....|C-4 ...F ....|--- .... ....
....|.6|B-4 1... ....|C-4 ...C ....|C-4 3..8 ....
....|..|--- .... ....|--- .... ....|--- .... ....
.100|.6|C-4 2C.. ....|C-4 7..F ....|B-4 1..A ....
....|..|--- .... ....|--- .... ....|--- .... ....
..90|.6|B-4 1F.5 ....|C-4 ...C ....|C-4 2A.. ....
.500|..|--- .... ....|--- .... ....|C-4 3C.C ....

[Pattern14]
.100|..|C-4 21.C ....|C-4 6..F ....|E-5 1F.F ....
....|..|--- .... ....|C-4 ...C ....|--- .... ....
.100|..|C-4 .4.. ....|C-4 2... ....|E-5 ...A ....
.100|..|C-4 .A.. A110|C-4 6..A ....|--- .... ....
....|.6|E-5 1F.E ....|C-4 7..E ....|C-4 2..8 ....
....|..|--- .... ....|--- .... ....|C-4 ...A A110
....|.6|G-5 .... ....|C-4 6..C ....|--- .... ....
....|..|--- .... ....|C-4 ...E ....|--- .... ....
.100|..|G-5 ...A ....|C-4 2..B ....|C-4 .8.C 11.A
.400|..|--- .... ....|C-4 .... ....|C-4 .8.. ....
.200|..|G-5 ...E ....|C-4 6..E ....|C-4 38.. ....
....|..|--- .... ....|--- .... ....|--- .... ....
....|.6|C-4 3..A ....|C-4 7..D ....|G-5 1F.A ....
....|..|--- .... ....|--- .... ....|--- .... ....
....|..|C-4 2..8 ....|C-4 2... ....|G-5 ...C ....
....|.6|--- .... ....|C-4 7..A ....|--- .... ....
.100|..|A-5 1..D ....|C-4 6..C ....|C-4 23.. ....
....|..|--- .... ....|C-4 2..A ....|--- .... ....
....|..|A-5 ...A ....|C-4 6... ....|--- .... ....
.150|..|--- .... ....|C-4 2..9 ....|C-4 34.. ....
..A0|.6|A-5 ...D ....|C-4 7..B ....|C-4 25.. ....
....|..|--- .... ....|--- .... ....|C-4 3F.8 ....
....|..|D-6 .... ....|C-4 2..9 ....|C-4 2... ....
....|..|--- .... ....|C-4 6..B ....|--- .... ....
....|..|C-4 2..8 ....|C-4 2..9 ....|D-6 1..A ....
....|..|--- .... ....|C-4 6... ....|--- .... ....
....|..|C-4 .... ....|C-4 ...A ....|E-6 ...C ....
....|..|--- .... ....|C-4 ...8 ....|--- .... ....
.100|.6|E-6 1..6 ....|C-4 7..A ....|C-4 28.. ....
....|..|--- .... ....|--- .... ....|--- .... ....
.440|..|E-6 ...8 ....|C-4 2... ....|C-4 .8.. ....
.450|.6|--- .... ....|C-4 7... ....|C-4 3A.. ....
....|..|E-5 ...A ....|C-4 6... ....|C-4 2F.. ....
....|..|--- .... ....|C-4 ...8 ....|C-4 3..8 ....
....|..|E-5 ...8 ....|C-4 2... ....|C-4 2..A ....
.110|..|--- .... ....|C-4 6... ....|C-4 .A.C ....
....|.6|E-5 ...A ....|C-4 7..9 ....|--- .... ....
....|..|--- .... ....|--- .... ....|--- .... ....
.140|..|C-4 28.. ....|--- .... ....|A-4 1F.A ....
....|..|--- .... ....|C-4 6... ....|--- .... ....
.130|..|A-4 1F.8 ....|C-4 2..6 ....|C-4 28.C ....
..90|..|--- .... ....|C-4 6... ....|C-4 3A.. ....
....|..|A-4 ...A ....|C-4 2..9 ....|C-4 2F.8 ....
....|..|--- .... ....|C-4 6... ....|C-4 3... ....
.500|.6|A-4 ...6 ....|C-4 7..8 ....|C-4 24.C ....
....|..|--- .... ....|--- .... ....|--- .... ....
.100|..|C-4 2E.7 ....|C-4 6..6 ....|A-4 1F.. ....
....|..|--- .... ....|--- .... ....|--- .... ....
..70|..|B-4 1F.8 ....|C-4 ...8 ....|C-4 2E.. ....
..70|..|--- .... ....|C-4 2..5 ....|C-4 .C.. ....
....|..|B-4 ...A ....|C-4 6... ....|--- .... ....
.500|..|--- .... ....|C-4 2... ....|C-4 .C.. ....
.300|.6|B-4 ...7 ....|C-4 7..8 ....|C-4 .E.. ....
....|..|--- .... ....|--- .... ....|C-4 .F.8 ....
....|..|B-4 ...6 ....|C-4 6..7 ....|C-4 ...A ....
....|.6|--- .... ....|--- .... ....|--- .... ....
....|..|C-4 2..8 ....|C-4 ...4 ....|B-4 1..5 ....
....|..|--- .... ....|C-4 ...7 ....|--- .... ....
....|.6|B-4 1..5 ....|C-4 ...4 ....|C-4 3..8 ....
....|..|--- .... ....|--- .... ....|--- .... ....
.100|.6|C-4 2C.. ....|C-4 7..7 ....|B-4 1..3 ....
....|..|--- .... ....|--- .... ....|--- .... ....
..90|.6|B-4 1F.. ....|C-4 ...3 ....|C-4 2A.. ....
.500|..|--- .... ....|--- .... ....|C-4 3C.C ....

[Pattern15]
.100|..|C-4 21.C ....|C-4 6..6 ....|E-5 1F.4 ....
....|..|--- .... ....|C-4 ...2 ....|--- .... ....
.100|..|C-4 .4.. ....|C-4 2... ....|E-5 ...2 ....
.100|..|C-4 .A.. A110|C-4 6..1 ....|--- .... ....
....|.6|E-5 1F.4 ....|C-4 7..6 ....|C-4 2..8 ....
....|..|--- .... ....|--- .... ....|C-4 ...A A110
....|.6|G-5 .... ....|C-4 6..1 ....|--- .... ....
....|..|--- .... ....|C-4 ...6 ....|--- .... ....
.100|..|G-5 ...2 ....|C-4 2..1 ....|C-4 .8.C 11.A
.400|..|--- .... ....|C-4 .... ....|C-4 .8.. ....
.200|..|G-5 ...4 ....|C-4 6..6 ....|C-4 38.. ....
....|..|--- .... ....|--- .... ....|--- .... ....
....|.6|C-4 3..A ....|C-4 7..5 ....|G-5 1F.2 ....
....|..|--- .... ....|--- .... ....|--- .... ....
....|..|C-4 2..8 ....|C-4 2... ....|G-5 ...3 ....
....|.6|--- .... ....|C-4 7..1 ....|--- .... ....
.100|..|A-5 1..4 ....|C-4 6..5 ....|C-4 23.. ....
....|..|--- .... ....|C-4 2..1 ....|--- .... ....
....|..|A-5 ...2 ....|C-4 6... ....|--- .... ....
.150|..|--- .... ....|C-4 2... ....|C-4 34.C ....
..A0|.6|A-5 ...4 ....|C-4 7..5 ....|C-4 25.. ....
....|..|--- .... ....|--- .... ....|C-4 3F.8 ....
....|..|D-6 .... ....|C-4 2..1 ....|C-4 2... ....
....|..|--- .... ....|C-4 6..5 ....|--- .... ....
....|..|C-4 2..8 ....|C-4 2..1 ....|D-6 1..2 ....
....|..|--- .... ....|C-4 6... ....|--- .... ....
....|..|C-4 .... ....|C-4 ...5 ....|E-6 ...4 ....
....|..|--- .... ....|C-4 ...1 ....|--- .... ....
.100|.6|E-6 1..2 ....|C-4 7..5 ....|C-4 28.. ....
....|..|--- .... ....|--- .... ....|--- .... ....
.440|..|E-6 ...3 ....|C-4 2... ....|C-4 .8.. ....
.450|.6|--- .... ....|C-4 7..1 ....|C-4 3A.C ....
....|..|E-5 ...4 ....|C-4 6..4 ....|C-4 2F.. ....
....|..|--- .... ....|C-4 ...1 ....|C-4 3..8 ....
....|..|E-5 ...2 ....|C-4 2... ....|C-4 2..A ....
.110|..|--- .... ....|C-4 6... ....|C-4 .A.C ....
....|.6|E-5 ...4 ....|C-4 7..4 ....|--- .... ....
....|..|--- .... ....|--- .... ....|--- .... ....
.140|..|C-4 28.. ....|--- .... ....|A-4 1F.4 ....
....|..|--- .... ....|C-4 6... ....|--- .... ....
.130|..|A-4 1F.2 ....|C-4 2..1 ....|C-4 28.C ....
..90|..|--- .... ....|C-4 6... ....|C-4 3A.. ....
....|..|A-4 ...4 ....|C-4 2..3 ....|C-4 2F.8 ....
....|..|--- .... ....|C-4 6... ....|C-4 3... ....
.500|.6|A-4 ...2 ....|C-4 7... ....|C-4 24.C ....
....|..|--- .... ....|--- .... ....|--- .... ....
.100|..|C-4 2E.C ....|C-4 6..1 ....|A-4 1F.3 ....
....|..|--- .... ....|--- .... ....|--- .... ....
..70|..|B-4 1F.4 ....|C-4 ...2 ....|C-4 2E.. ....
..70|..|--- .... ....|C-4 2..1 ....|C-4 .C.C ....
....|..|B-4 ...2 ....|C-4 6... ....|--- .... ....
.500|..|--- .... ....|C-4 2... ....|C-4 .C.. ....
.300|.6|B-4 ...3 ....|C-4 7... ....|C-4 .E.. ....
....|..|--- .... ....|--- .... ....|C-4 .F.8 ....
....|..|B-4 ...2 ....|C-4 6... ....|C-4 ...A ....
....|.6|--- .... ....|--- .... ....|--- .... ....
....|..|C-4 2..8 ....|C-4 .... ....|B-4 1..3 ....
....|..|--- .... ....|C-4 .... ....|--- .... ....
....|.6|B-4 1..1 ....|C-4 .... ....|C-4 3..8 ....
....|..|--- .... ....|--- .... ....|--- .... ....
.100|.6|C-4 2C.. ....|C-4 7..F ....|B-4 1..2 ....
....|..|--- .... ....|--- .... ....|--- .... ....
..90|.6|B-4 1F.. ....|C-4 ...1 ....|C-4 2A.. ....
.500|..|--- .... ....|--- .... ....|C-4 3C.C ....

[Module]
VortexTrackerII=0
Version=3.7
Title=:::: with new VT 2.6 release :)
Author=vibe.->.wbcbz7.3oo4zoiq.abc.ay
NoteTable=2
ChipFreq=1750000
IntFreq=48828
Speed=6
Noise=HEX
PlayOrder=L0,1,1,2,3,4,5,6,7,7,8,8,8,8,9,10,10,11,12,12,12,13,14


[Ornament1]
12,0,L0

[Ornament2]
L0

[Ornament3]
L0

[Ornament4]
L0

[Ornament5]
L0

[Ornament6]
L0

[Ornament7]
L0

[Ornament8]
L0

[Ornament9]
L0

[Ornament10]
L0

[Ornament11]
L0

[Ornament12]
L0

[Ornament13]
L0

[Ornament14]
L0

[Ornament15]
L0

[Sample1]
T.E -001_ +00_ D_ L
T.E -001_ +00_ D_
T.E -001_ +00_ D-

[Sample2]
T.E +000_ +00_ B_ L
T.E +000_ +00_ B_
T.E +000_ +00_ B_
T.E +000_ +00_ B-

[Sample3]
T.E -100^ -10^ 0_
T.E +080^ +08^ 0_
T.E +080^ +08^ 0_
T.E +000_ +00_ 0_ L
T.E +000_ +00_ 0_

[Sample4]
... +000_ +00_ 0_ L

[Sample5]
... +000_ +00_ 0_ L

[Sample6]
... +000_ +00_ 0_ L

[Sample7]
... +000_ +00_ 0_ L

[Sample8]
T.E +000_ +00_ F_ L
T.E +000_ +00_ F_
T.E +001_ +00_ F_
T.E +001_ +00_ F_
T.E +001_ +00_ F_
T.E +000_ +00_ F_
T.E +000_ +00_ F_
T.E -001_ +00_ F_
T.E -001_ +00_ F_
T.E -001_ +00_ F_
T.E +000_ +00_ F_
T.E +000_ +00_ F_

[Sample9]
T.E +000_ +00_ F_ L

[Sample10]
T.E +000^ +00^ 0_
T.E +000^ +00^ 0_
T.E +000^ +00^ 0_
T.E +000_ +00_ 0_ L
T.E +000_ +00_ 0_

[Sample11]
... +000_ +00_ 0_ L

[Sample12]
... +000_ +00_ 0_ L

[Sample13]
... +000_ +00_ 0_ L

[Sample14]
... +000_ +00_ 0_ L

[Sample15]
... +000_ +00_ 0_ L

[Sample16]
... +000_ +00_ 0_ L

[Sample17]
... +000_ +00_ 0_ L

[Sample18]
... +000_ +00_ 0_ L

[Sample19]
... +000_ +00_ 0_ L

[Sample20]
... +000_ +00_ 0_ L

[Sample21]
... +000_ +00_ 0_ L

[Sample22]
... +000_ +00_ 0_ L

[Sample23]
... +000_ +00_ 0_ L

[Sample24]
... +000_ +00_ 0_ L

[Sample25]
... +000_ +00_ 0_ L

[Sample26]
... +000_ +00_ 0_ L

[Sample27]
... +000_ +00_ 0_ L

[Sample28]
... +000_ +00_ 0_ L

[Sample29]
... +000_ +00_ 0_ L

[Sample30]
... +000_ +00_ 0_ L

[Sample31]
... +000_ +00_ 0_ L

[Pattern0]
....|..|E-4 2F.F ....|--- .... ....|--- .... ....
....|..|--- .... ....|--- .... ....|--- .... ....
....|..|B-4 .... ....|--- .... ....|E-4 2F.C ....
....|..|--- .... ....|--- .... ....|--- .... ....
....|..|E-5 .... ....|--- .... ....|B-4 .... ....
....|..|--- .... ....|E-4 1F.A ....|--- .... ....
....|..|D-4 .... ....|--- .... ....|E-5 .... ....
....|..|--- .... ....|B-4 .... ....|--- .... ....
....|..|A-4 .... ....|--- .... ....|D-4 .... ....
....|..|--- .... ....|E-5 .... ....|--- .... ....
....|..|D-5 .... ....|--- .... ....|A-4 .... ....
....|..|--- .... ....|D-4 .... ....|--- .... ....
....|..|B-3 .... ....|--- .... ....|D-5 .... ....
....|..|--- .... ....|A-4 .... ....|--- .... ....
....|..|B-4 .... ....|--- .... ....|B-3 .... ....
....|..|--- .... ....|D-5 .... ....|--- .... ....
....|..|A-3 .... ....|--- .... ....|B-4 .... ....
....|..|--- .... ....|B-3 .... ....|--- .... ....
....|..|A-4 .... ....|--- .... ....|A-3 .... ....
....|..|--- .... ....|B-4 .... ....|--- .... ....
....|..|D-5 .... ....|--- .... ....|A-4 .... ....
....|..|--- .... ....|A-3 .... ....|--- .... ....
....|..|G-3 .... ....|--- .... ....|D-5 .... ....
....|..|--- .... ....|A-4 .... ....|--- .... ....
....|..|G-4 .... ....|--- .... ....|G-3 .... ....
....|..|--- .... ....|D-5 .... ....|--- .... ....
....|..|B-4 .... ....|--- .... ....|G-4 .... ....
....|..|--- .... ....|G-3 .... ....|--- .... ....
....|..|F#3 .... ....|--- .... ....|B-4 .... ....
....|..|--- .... ....|G-4 .... ....|--- .... ....
....|..|B-4 .... ....|--- .... ....|F#3 .... ....
....|..|--- .... ....|B-4 .... ....|--- .... ....
....|..|E-3 .... ....|--- .... ....|B-4 .... ....
....|..|--- .... ....|F#3 .... ....|--- .... ....
....|..|E-4 .... ....|--- .... ....|E-3 .... ....
....|..|--- .... ....|B-4 .... ....|--- .... ....
....|..|G-4 .... ....|--- .... ....|E-4 .... ....
....|..|--- .... ....|E-3 .... ....|--- .... ....
....|..|D-3 .... ....|--- .... ....|G-4 .... ....
....|..|--- .... ....|E-4 .... ....|--- .... ....
....|..|D-4 .... ....|--- .... ....|D-3 .... ....
....|..|--- .... ....|G-4 .... ....|--- .... ....
....|..|A-4 .... ....|--- .... ....|D-4 .... ....
....|..|--- .... ....|D-3 .... ....|--- .... ....
....|..|F#4 .... ....|--- .... ....|A-4 .... ....
....|..|--- .... ....|D-4 .... ....|--- .... ....
....|..|A-4 .... ....|--- .... ....|F#4 .... ....
....|..|--- .... ....|A-4 .... ....|--- .... ....
....|..|B-2 .... ....|--- .... ....|A-4 .... ....
....|..|--- .... ....|F#4 .... ....|--- .... ....
....|..|B-3 .... ....|--- .... ....|B-2 .... ....
....|..|--- .... ....|A-4 .... ....|--- .... ....
....|..|F#4 .... ....|--- .... ....|B-3 .... ....
....|..|--- .... ....|B-2 .... ....|--- .... ....
....|..|C-3 .... ....|--- .... ....|F#4 .... ....
....|..|--- .... ....|B-3 .... ....|--- .... ....
....|..|C-4 .... ....|--- .... ....|C-3 .... ....
....|..|--- .... ....|F#4 .... ....|--- .... ....
....|..|G-4 .... ....|--- .... ....|C-4 .... ....
....|..|--- .... ....|C-3 .... ....|--- .... ....
....|..|E-4 .... ....|--- .... ....|G-4 .... ....
....|..|--- .... ....|C-4 .... ....|--- .... ....
....|..|C-4 .... ....|--- .... ....|E-4 .... ....
....|..|--- .... ....|G-4 .... ....|--- .... ....

[Pattern1]
....|..|E-4 2F.F ....|--- .... ....|--- .... ....
....|..|--- .... ....|--- .... ....|--- .... ....
....|..|B-4 .... ....|--- .... ....|E-4 2F.C ....
....|..|--- .... ....|--- .... ....|--- .... ....
....|..|E-5 .... ....|--- .... ....|B-4 .... ....
....|..|--- .... ....|E-4 1F.A ....|--- .... ....
....|..|D-4 .... ....|--- .... ....|E-5 .... ....
....|..|--- .... ....|B-4 .... ....|--- .... ....
....|..|A-4 .... ....|--- .... ....|D-4 .... ....
....|..|--- .... ....|E-5 .... ....|--- .... ....
....|..|D-5 .... ....|--- .... ....|A-4 .... ....
....|..|--- .... ....|D-4 .... ....|--- .... ....
....|..|B-3 .... ....|--- .... ....|D-5 .... ....
....|..|--- .... ....|A-4 .... ....|--- .... ....
....|..|B-4 .... ....|--- .... ....|B-3 .... ....
....|..|--- .... ....|D-5 .... ....|--- .... ....
....|..|A-3 .... ....|--- .... ....|B-4 .... ....
....|..|--- .... ....|B-3 .... ....|--- .... ....
....|..|A-4 .... ....|--- .... ....|A-3 .... ....
....|..|--- .... ....|B-4 .... ....|--- .... ....
....|..|D-5 .... ....|--- .... ....|A-4 .... ....
....|..|--- .... ....|A-3 .... ....|--- .... ....
....|..|G-3 .... ....|--- .... ....|D-5 .... ....
....|..|--- .... ....|A-4 .... ....|--- .... ....
....|..|G-4 .... ....|--- .... ....|G-3 .... ....
....|..|--- .... ....|D-5 .... ....|--- .... ....
....|..|B-4 .... ....|--- .... ....|G-4 .... ....
....|..|--- .... ....|G-3 .... ....|--- .... ....
....|..|F#3 .... ....|--- .... ....|B-4 .... ....
....|..|--- .... ....|G-4 .... ....|--- .... ....
....|..|B-4 .... ....|--- .... ....|F#3 .... ....
....|..|--- .... ....|B-4 .... ....|--- .... ....
....|..|E-3 .... ....|--- .... ....|B-4 .... ....
....|..|--- .... ....|F#3 .... ....|--- .... ....
....|..|E-4 .... ....|--- .... ....|E-3 .... ....
....|..|--- .... ....|B-4 .... ....|--- .... ....
....|..|G-4 .... ....|--- .... ....|E-4 .... ....
....|..|--- .... ....|E-3 .... ....|--- .... ....
....|..|D-3 .... ....|--- .... ....|G-4 .... ....
....|..|--- .... ....|E-4 .... ....|--- .... ....
....|..|D-4 .... ....|--- .... ....|D-3 .... ....
....|..|--- .... ....|G-4 .... ....|--- .... ....
....|..|A-4 .... ....|--- .... ....|D-4 .... ....
....|..|--- .... ....|D-3 .... ....|--- .... ....
....|..|F#4 .... ....|--- .... ....|A-4 .... ....
....|..|--- .... ....|D-4 .... ....|--- .... ....
....|..|A-4 .... ....|--- .... ....|F#4 .... ....
....|..|--- .... ....|A-4 .... ....|--- .... ....
....|..|B-2 .... ....|--- .... ....|A-4 .... ....
....|..|--- .... ....|F#4 .... ....|--- .... ....
....|..|B-3 .... ....|--- .... ....|B-2 .... ....
....|..|--- .... ....|A-4 .... ....|--- .... ....
....|..|F#4 .... ....|--- .... ....|B-3 .... ....
....|..|--- .... ....|B-2 .... ....|--- .... ....
....|..|C-3 .... ....|--- .... ....|F#4 .... ....
....|..|--- .... ....|B-3 .... ....|--- .... ....
....|..|C-4 .... ....|--- .... ....|C-3 .... ....
....|..|--- .... ....|F#4 .... ....|--- .... ....
....|..|G-4 .... ....|--- .... ....|C-4 .... ....
....|..|--- .... ....|C-3 .... ....|--- .... ....
....|..|E-4 .... ....|--- .... ....|G-4 .... ....
....|..|--- .... ....|C-4 .... ....|--- .... ....
....|..|C-4 .... ....|--- .... ....|E-4 .... ....
....|..|--- .... ....|G-4 .... ....|--- .... ....

[Pattern2]
..2A|..|E-4 2F.F ....|E-2 3A.. ....|--- .... ....
....|..|--- .... ....|--- .... ....|--- .... ....
....|..|B-4 .... ....|--- .... ....|E-4 2F.C ....
..53|..|--- .... ....|E-1 .A.. ....|--- .... ....
....|..|E-5 .... ....|--- .... ....|B-4 .... ....
....|..|--- .... ....|--- .... ....|--- .... ....
..2F|..|D-4 .... ....|D-2 .A.. ....|E-5 .... ....
....|..|--- .... ....|--- .... ....|--- .... ....
....|..|A-4 .... ....|--- .... ....|D-4 .... ....
....|..|--- .... ....|--- .... ....|--- .... ....
..5D|..|D-5 .... ....|D-1 .A.. ....|A-4 .... ....
....|..|--- .... ....|--- .... ....|--- .... ....
....|..|B-3 .... ....|--- .... ....|D-5 .... ....
....|..|--- .... ....|--- .... ....|--- .... ....
....|..|B-4 .... ....|--- .... ....|B-3 .... ....
....|..|--- .... ....|--- .... ....|--- .... ....
..1F|..|A-3 .... ....|A-2 .A.. ....|B-4 .... ....
....|..|--- .... ....|--- .... ....|--- .... ....
....|..|A-4 .... ....|--- .... ....|A-3 .... ....
..3E|..|--- .... ....|A-1 .A.. ....|--- .... ....
....|..|D-5 .... ....|--- .... ....|A-4 .... ....
....|..|--- .... ....|--- .... ....|--- .... ....
..23|..|G-3 .... ....|G-2 .A.. ....|D-5 .... ....
....|..|--- .... ....|--- .... ....|--- .... ....
....|..|G-4 .... ....|--- .... ....|G-3 .... ....
....|..|--- .... ....|--- .... ....|--- .... ....
..46|..|B-4 .... ....|G-1 .A.. ....|G-4 .... ....
....|..|--- .... ....|--- .... ....|--- .... ....
..25|..|F#3 .... ....|F#2 .A.. ....|B-4 .... ....
....|..|--- .... ....|--- .... ....|--- .... ....
..4A|..|B-4 .... ....|F#1 .A.. ....|F#3 .... ....
....|..|--- .... ....|--- .... ....|--- .... ....
..2A|..|E-3 .... ....|E-2 .A.. ....|B-4 .... ....
....|..|--- .... ....|--- .... ....|--- .... ....
....|..|E-4 .... ....|--- .... ....|E-3 .... ....
..53|..|--- .... ....|E-1 .A.. ....|--- .... ....
....|..|G-4 .... ....|--- .... ....|E-4 .... ....
....|..|--- .... ....|--- .... ....|--- .... ....
..2F|..|D-3 .... ....|D-2 .A.. ....|G-4 .... ....
....|..|--- .... ....|--- .... ....|--- .... ....
....|..|D-4 .... ....|--- .... ....|D-3 .... ....
....|..|--- .... ....|--- .... ....|--- .... ....
..5D|..|A-4 .... ....|D-1 .A.. ....|D-4 .... ....
....|..|--- .... ....|--- .... ....|--- .... ....
....|..|F#4 .... ....|--- .... ....|A-4 .... ....
....|..|--- .... ....|--- .... ....|--- .... ....
....|..|A-4 .... ....|--- .... ....|F#4 .... ....
....|..|--- .... ....|--- .... ....|--- .... ....
..1C|..|B-2 .... ....|B-2 .A.. ....|A-4 .... ....
....|..|--- .... ....|--- .... ....|--- .... ....
....|..|B-3 .... ....|--- .... ....|B-2 .... ....
..37|..|--- .... ....|B-1 .A.. ....|--- .... ....
....|..|F#4 .... ....|--- .... ....|B-3 .... ....
....|..|--- .... ....|--- .... ....|--- .... ....
..1A|..|C-3 .... ....|C-3 .A.. ....|F#4 .... ....
....|..|--- .... ....|--- .... ....|--- .... ....
....|..|C-4 .... ....|--- .... ....|C-3 .... ....
....|..|--- .... ....|--- .... ....|--- .... ....
..34|..|G-4 .... ....|C-2 .A.. ....|C-4 .... ....
....|..|--- .... ....|--- .... ....|--- .... ....
....|..|E-4 .... ....|--- .... ....|G-4 .... ....
....|..|--- .... ....|--- .... ....|--- .... ....
....|..|C-4 .... ....|--- .... ....|E-4 .... ....
....|..|--- .... ....|--- .... ....|--- .... ....

[Pattern3]
..2A|..|E-5 2F1F ....|E-2 3A.. ....|--- .... ....
....|..|--- .... ....|--- .... ....|--- .... ....
....|..|G-5 .... ....|--- .... ....|--- .... ....
..53|..|--- .... ....|E-1 .A.. ....|E-5 2F.C ....
....|..|D-6 .... ....|--- .... ....|--- .... ....
....|..|--- .... ....|--- .... ....|G-5 .... ....
..2F|..|B-5 .... ....|D-2 .A.. ....|--- .... ....
....|..|--- .... ....|--- .... ....|D-6 .... ....
....|..|--- .... ....|--- .... ....|--- .... ....
....|..|--- .... ....|--- .... ....|B-5 .... ....
..5D|..|--- .... ....|D-1 .A.. ....|--- .... ....
....|..|--- .... ....|--- .... ....|--- .... ....
....|..|D-6 .F.8 ....|--- .... ....|--- .... ....
....|..|--- .... ....|--- .... ....|--- .... ....
....|..|B-5 .... ....|--- .... ....|--- .... ....
....|..|--- .... ....|--- .... ....|D-6 ...8 ....
..1F|..|F#6 ..1F ....|A-2 .A.. ....|--- .... ....
....|..|--- .... ....|--- .... ....|B-5 .... ....
....|..|G-6 .... ....|--- .... ....|--- .... ....
..3E|..|--- .... ....|A-1 .A.. ....|F#6 ..1C ....
....|..|F#6 .... ....|--- .... ....|--- .... ....
....|..|--- .... ....|--- .... ....|G-6 .... ....
..23|..|D-6 .... ....|G-2 .A.. ....|--- .... ....
....|..|--- .... ....|--- .... ....|F#6 .... ....
....|..|--- .... ....|--- .... ....|--- .... ....
....|..|--- .... ....|--- .... ....|D-6 .... ....
..46|..|A-5 .... ....|G-1 .A.. ....|--- .... ....
....|..|--- .... ....|--- .... ....|--- .... ....
..25|..|G-5 .... ....|F#2 .A.. ....|--- .... ....
....|..|--- .... ....|--- .... ....|A-5 .... ....
..4A|..|A-5 .... ....|F#1 .A.. ....|--- .... ....
....|..|--- .... ....|--- .... ....|G-5 .... ....
..2A|..|B-5 .... ....|E-2 .A.. ....|--- .... ....
....|..|--- .... ....|--- .... ....|A-5 .... ....
....|..|E-5 .... ....|--- .... ....|--- .... ....
..53|..|--- .... ....|E-1 .A.. ....|B-5 .... ....
....|..|E-5 .... ....|--- .... ....|--- .... ....
....|..|--- .... ....|--- .... ....|E-5 .... ....
..2F|..|D-5 .... ....|D-2 .A.. ....|--- .... ....
....|..|--- .... ....|--- .... ....|E-5 .... ....
....|..|--- .... ....|--- .... ....|--- .... ....
....|..|--- .... ....|--- .... ....|D-5 .... ....
..5D|..|E-5 .... ....|D-1 .A.. ....|--- .... ....
....|..|--- .... ....|--- .... ....|--- .... ....
....|..|B-4 .... ....|--- .... ....|--- .... ....
....|..|--- .... ....|--- .... ....|E-5 .... ....
....|..|A-4 .... ....|--- .... ....|--- .... ....
....|..|--- .... ....|--- .... ....|B-4 .... ....
..1C|..|B-4 .... ....|B-2 .A.. ....|--- .... ....
....|..|--- .... ....|--- .... ....|A-4 .... ....
....|..|--- .... ....|--- .... ....|--- .... ....
..37|..|--- .... ....|B-1 .A.. ....|B-4 .... ....
....|..|--- .... ....|--- .... ....|--- .... ....
....|..|--- .... ....|--- .... ....|--- .... ....
..1A|..|A-4 .... ....|C-3 .A.. ....|--- .... ....
....|..|--- .... ....|--- .... ....|--- .... ....
....|..|--- .... ....|--- .... ....|--- .... ....
....|..|--- .... ....|--- .... ....|A-4 .... ....
..34|..|--- .... ....|C-2 .A.. ....|--- .... ....
....|..|--- .... ....|--- .... ....|--- .... ....
....|..|G-4 .... ....|--- .... ....|--- .... ....
....|..|--- .... ....|--- .... ....|--- .... ....
....|..|D-5 .... ....|--- .... ....|--- .... ....
....|..|--- .... ....|--- .... ....|G-4 .... ....

[Pattern4]
..2A|..|G-5 2F1F ....|E-2 3A.. ....|--- .... ....
....|..|--- .... ....|--- .... ....|--- .... ....
....|..|F#5 .... ....|--- .... ....|--- .... ....
..53|..|G-5 .... ....|E-1 .A.. ....|G-5 2F1C ....
....|..|--- .... ....|--- .... ....|--- .... ....
....|..|--- .... ....|--- .... ....|F#5 .... ....
..2F|..|A-5 .... ....|D-2 .A.. ....|G-5 .... ....
....|..|--- .... ....|--- .... ....|--- .... ....
....|..|--- .... ....|--- .... ....|--- .... ....
....|..|--- .... ....|--- .... ....|A-5 .... ....
..5D|..|E-5 .... ....|D-1 .A.. ....|--- .... ....
....|..|--- .... ....|--- .... ....|--- .... ....
....|..|--- .... ....|--- .... ....|--- .... ....
....|..|--- .... ....|--- .... ....|E-5 .... ....
....|..|G-5 .... ....|--- .... ....|--- .... ....
....|..|--- .... ....|--- .... ....|--- .... ....
..1F|..|D-6 .... ....|A-2 .A.. ....|--- .... ....
....|..|--- .... ....|--- .... ....|G-5 .... ....
....|..|B-5 .... ....|--- .... ....|--- .... ....
..3E|..|A-5 .... ....|A-1 .A.. ....|D-6 .... ....
....|..|--- .... ....|--- .... ....|--- .... ....
....|..|--- .... ....|--- .... ....|B-5 .... ....
..23|..|B-5 .... ....|G-2 .A.. ....|A-5 .... ....
....|..|--- .... ....|--- .... ....|--- .... ....
....|..|--- .... ....|--- .... ....|--- .... ....
....|..|--- .... ....|--- .... ....|B-5 .... ....
..46|..|G-6 .... ....|G-1 .A.. ....|--- .... ....
....|..|--- .... ....|--- .... ....|--- .... ....
..25|..|F#6 .... ....|F#2 .A.. ....|--- .... ....
....|..|--- .... ....|--- .... ....|G-6 .... ....
..4A|..|D-6 .... ....|F#1 .A.. ....|--- .... ....
....|..|--- .... ....|--- .... ....|F#6 .... ....
..2A|..|E-6 .... ....|E-2 .A.. ....|--- .... ....
....|..|--- .... ....|--- .... ....|D-6 .... ....
....|..|--- .... ....|--- .... ....|--- .... ....
..53|..|--- .... ....|E-1 .A.. ....|E-6 .... ....
....|..|G-6 .... ....|--- .... ....|--- .... ....
....|..|--- .... ....|--- .... ....|--- .... ....
..2F|..|B-5 .... ....|D-2 .A.. ....|--- .... ....
....|..|--- .... ....|--- .... ....|G-6 .... ....
....|..|--- .... ....|--- .... ....|--- .... ....
....|..|--- .... ....|--- .... ....|B-5 .... ....
..5D|..|--- .... ....|D-1 .A.. ....|--- .... ....
....|..|--- .... ....|--- .... ....|--- .... ....
....|..|--- .... ....|--- .... ....|--- .... ....
....|..|--- .... ....|--- .... ....|--- .... ....
....|..|D-5 .... ....|--- .... ....|--- .... ....
....|..|--- .... ....|--- .... ....|--- .... ....
..1C|..|A-6 .... ....|B-2 .A.. ....|--- .... ....
....|..|--- .... ....|--- .... ....|D-5 .... ....
....|..|--- .... ....|--- .... ....|--- .... ....
..37|..|--- .... ....|B-1 .A.. ....|A-6 .... ....
....|..|F#6 .... ....|--- .... ....|--- .... ....
....|..|--- .... ....|--- .... ....|--- .... ....
..1A|..|G-6 .... ....|C-3 .A.. ....|--- .... ....
....|..|--- .... ....|--- .... ....|F#6 .... ....
....|..|--- .... ....|--- .... ....|--- .... ....
....|..|--- .... ....|--- .... ....|G-6 .... ....
..34|..|D-6 .... ....|C-2 .A.. ....|--- .... ....
....|..|--- .... ....|--- .... ....|--- .... ....
....|..|--- .... ....|--- .... ....|--- .... ....
....|..|--- .... ....|--- .... ....|D-6 .... ....
....|..|--- .... ....|--- .... ....|--- .... ....
....|..|--- .... ....|--- .... ....|--- .... ....

[Pattern5]
..1C|..|E-6 2F1F ....|E-3 3A.. ....|--- .... ....
....|..|--- .... ....|--- .... ....|--- .... ....
....|..|G-6 .... ....|--- .... ....|--- .... ....
..1C|..|--- .... ....|E-2 .A.. ....|E-6 2F1C ....
....|..|D-7 .... ....|--- .... ....|--- .... ....
....|..|--- .... ....|--- .... ....|G-6 .... ....
..1F|..|B-6 .... ....|D-3 .A.. ....|--- .... ....
....|..|--- .... ....|--- .... ....|D-7 .... ....
....|..|--- .... ....|--- .... ....|--- .... ....
....|..|--- .... ....|--- .... ....|B-6 .... ....
..1F|..|--- .... ....|D-2 .A.. ....|--- .... ....
....|..|--- .... ....|--- .... ....|--- .... ....
....|..|D-7 .F.8 ....|--- .... ....|--- .... ....
....|..|--- .... ....|--- .... ....|--- .... ....
....|..|B-6 .... ....|--- .... ....|--- .... ....
....|..|--- .... ....|--- .... ....|D-7 .F.8 ....
..15|..|F#7 ..1F ....|A-3 .A.. ....|--- .... ....
....|..|--- .... ....|--- .... ....|B-6 .... ....
....|..|G-7 .... ....|--- .... ....|--- .... ....
..15|..|--- .... ....|A-2 .A.. ....|F#7 ..1C ....
....|..|F#7 .... ....|--- .... ....|--- .... ....
....|..|--- .... ....|--- .... ....|G-7 .... ....
..17|..|D-7 .... ....|G-3 .A.. ....|--- .... ....
....|..|--- .... ....|--- .... ....|F#7 .... ....
....|..|--- .... ....|--- .... ....|--- .... ....
....|..|--- .... ....|--- .... ....|D-7 .... ....
..17|..|A-6 .... ....|G-2 .A.. ....|--- .... ....
....|..|--- .... ....|--- .... ....|--- .... ....
..19|..|G-6 .... ....|F#3 .A.. ....|--- .... ....
....|..|--- .... ....|--- .... ....|A-6 .... ....
..19|..|A-6 .... ....|F#2 .A.. ....|--- .... ....
....|..|--- .... ....|--- .... ....|G-6 .... ....
..1C|..|B-6 .... ....|E-3 .A.. ....|--- .... ....
....|..|--- .... ....|--- .... ....|A-6 .... ....
....|..|E-6 .... ....|--- .... ....|--- .... ....
..1C|..|--- .... ....|E-2 .A.. ....|B-6 .... ....
....|..|E-6 .... ....|--- .... ....|--- .... ....
....|..|--- .... ....|--- .... ....|E-6 .... ....
..1F|..|D-6 .... ....|D-3 .A.. ....|--- .... ....
....|..|--- .... ....|--- .... ....|E-6 .... ....
....|..|--- .... ....|--- .... ....|--- .... ....
....|..|--- .... ....|--- .... ....|D-6 .... ....
..3E|..|E-6 .... ....|D-2 .A.. ....|--- .... ....
....|..|--- .... ....|--- .... ....|--- .... ....
....|..|B-5 .... ....|--- .... ....|--- .... ....
....|..|--- .... ....|--- .... ....|E-6 .... ....
....|..|A-5 .... ....|--- .... ....|--- .... ....
....|..|--- .... ....|--- .... ....|B-5 .... ....
..25|..|B-5 .... ....|B-3 .A.. ....|--- .... ....
....|..|--- .... ....|--- .... ....|A-5 .... ....
....|..|--- .... ....|--- .... ....|--- .... ....
..25|..|--- .... ....|B-2 .A.. ....|B-5 .... ....
....|..|--- .... ....|--- .... ....|--- .... ....
....|..|--- .... ....|--- .... ....|--- .... ....
..23|..|A-5 .... ....|C-4 .A.. ....|--- .... ....
....|..|--- .... ....|--- .... ....|--- .... ....
....|..|--- .... ....|--- .... ....|--- .... ....
....|..|--- .... ....|--- .... ....|A-5 .... ....
..23|..|--- .... ....|C-3 .A.. ....|--- .... ....
....|..|--- .... ....|--- .... ....|--- .... ....
....|..|G-5 .... ....|--- .... ....|--- .... ....
....|..|--- .... ....|--- .... ....|--- .... ....
....|..|--- .... ....|--- .... ....|--- .... ....
....|..|--- .... ....|--- .... ....|G-5 .... ....

[Pattern6]
..1C|..|--- .... ....|E-2 3A.. ....|G-5 2F1F ....
....|..|--- .... ....|--- .... ....|--- .... ....
....|..|--- .... ....|--- .... ....|F#5 .... ....
..37|..|G-5 2F.C ....|E-1 .A.. ....|G-5 .... ....
....|..|--- .... ....|--- .... ....|--- .... ....
....|..|F#5 .... ....|--- .... ....|--- .... ....
..1F|..|G-5 .... ....|D-2 .A.. ....|A-5 .... ....
....|..|--- .... ....|--- .... ....|--- .... ....
....|..|--- .... ....|--- .... ....|--- .... ....
....|..|A-5 .... ....|--- .... ....|--- .... ....
..3E|..|--- .... ....|D-1 .A.. ....|E-5 .... ....
....|..|--- .... ....|--- .... ....|--- .... ....
....|..|--- .... ....|--- .... ....|--- .... ....
....|..|E-5 .... ....|--- .... ....|--- .... ....
....|..|--- .... ....|--- .... ....|A-5 .... ....
....|..|--- .... ....|--- .... ....|--- .... ....
..1F|..|--- .... ....|A-2 .A.. ....|D-6 .... ....
....|..|A-5 .... ....|--- .... ....|--- .... ....
....|..|--- .... ....|--- .... ....|E-6 .... ....
..29|..|D-6 .... ....|A-1 .A.. ....|--- .... ....
....|..|--- .... ....|--- .... ....|D-6 .... ....
....|..|E-6 .... ....|--- .... ....|--- .... ....
..23|..|--- .... ....|G-2 .A.. ....|B-5 .... ....
....|..|D-6 .... ....|--- .... ....|--- .... ....
....|..|--- .... ....|--- .... ....|--- .... ....
....|..|B-5 .... ....|--- .... ....|--- .... ....
..2E|..|--- .... ....|G-1 .A.. ....|D-6 .... ....
....|..|--- .... ....|--- .... ....|--- .... ....
..19|..|--- .... ....|F#2 .A.. ....|G-6 .... ....
....|..|D-6 .... ....|--- .... ....|--- .... ....
..31|..|--- .... ....|F#1 .A.. ....|F#6 .... ....
....|..|G-6 .... ....|--- .... ....|--- .... ....
..2A|..|--- .... ....|E-2 .A.. ....|E-6 .... ....
....|..|F#6 .... ....|--- .... ....|--- .... ....
....|..|--- .... ....|--- .... ....|--- .... ....
..53|..|E-6 .... ....|E-1 .A.. ....|--- .... ....
....|..|--- .... ....|--- .... ....|D-6 .... ....
....|..|--- .... ....|--- .... ....|--- .... ....
..2F|..|--- .... ....|D-2 .A.. ....|B-5 .... ....
....|..|D-6 .... ....|--- .... ....|--- .... ....
....|..|--- .... ....|--- .... ....|--- .... ....
....|..|B-5 .... ....|--- .... ....|--- .... ....
..5D|..|--- .... ....|D-1 .A.. ....|A-5 .... ....
....|..|--- .... ....|--- .... ....|--- .... ....
....|..|--- .... ....|--- .... ....|F#5 .... ....
....|..|A-5 .... ....|--- .... ....|--- .... ....
....|..|--- .... ....|--- .... ....|B-5 .... ....
....|..|F#5 .... ....|--- .... ....|--- .... ....
..1C|..|--- .... ....|B-2 .A.. ....|G-5 .... ....
....|..|B-5 .... ....|--- .... ....|--- .... ....
....|..|--- .... ....|--- .... ....|--- .... ....
..37|..|G-5 .... ....|B-1 .A.. ....|--- .... ....
....|..|--- .... ....|--- .... ....|F#5 .... ....
....|..|--- .... ....|--- .... ....|--- .... ....
..1A|..|--- .... ....|C-3 .A.. ....|D-5 .... ....
....|..|F#5 .... ....|--- .... ....|--- .... ....
....|..|--- .... ....|--- .... ....|--- .... ....
....|..|D-5 .... ....|--- .... ....|--- .... ....
..34|..|--- .... ....|C-2 .A.. ....|D-5 ...C ....
....|..|--- .... ....|--- .... ....|--- .... ....
....|..|--- .... ....|--- .... ....|E-5 .... ....
....|..|--- .... ....|--- .... ....|--- .... ....
....|..|--- .... ....|--- .... ....|--- .... ....
..A6|..|E-5 .... ....|E-1 .8.. ....|--- .... ....

[Pattern7]
....|..|--- .... ....|--- .... ....|E-4 2F.C ....
....|..|--- .... ....|--- .... ....|--- .... ....
....|.1|E-4 1F.8 ....|--- .... ....|E-3 .... ....
....|.1|--- .... ....|--- .... ....|--- .... ....
....|.2|E-3 .... ....|--- .... ....|B-3 .... ....
....|.2|--- .... ....|--- .... ....|--- .... ....
....|.3|B-3 .... ....|--- .... ....|D-4 .... ....
....|.3|--- .... ....|--- .... ....|--- .... ....
....|.4|D-4 .... ....|--- .... ....|E-4 .... ....
....|.4|--- .... ....|--- .... ....|--- .... ....
....|.5|E-4 .... ....|--- .... ....|E-3 .... ....
....|.6|--- .... ....|--- .... ....|--- .... ....
....|.7|E-3 .... ....|--- .... ....|B-3 .... ....
....|.8|--- .... ....|--- .... ....|--- .... ....
....|.9|B-3 .... ....|--- .... ....|D-4 .... ....
....|.A|--- .... ....|--- .... ....|--- .... ....
....|.B|D-4 .... ....|--- .... ....|E-4 .... ....
....|.C|--- .... ....|--- .... ....|--- .... ....
....|.D|E-4 .... ....|--- .... ....|E-3 .... ....
....|.E|--- .... ....|--- .... ....|--- .... ....
....|.F|E-3 .... ....|--- .... ....|B-3 .... ....
....|10|--- .... ....|--- .... ....|--- .... ....
....|11|B-3 .... ....|--- .... ....|D-4 .... ....
....|12|--- .... ....|--- .... ....|--- .... ....
....|13|D-4 .... ....|--- .... ....|E-4 .... ....
....|14|--- .... ....|--- .... ....|--- .... ....
....|15|E-4 .... ....|--- .... ....|B-3 .... ....
....|16|--- .... ....|--- .... ....|--- .... ....
....|17|B-3 .... ....|--- .... ....|D-4 .... ....
....|18|--- .... ....|--- .... ....|--- .... ....
....|19|D-4 .... ....|--- .... ....|B-3 .... ....
....|1A|--- .... ....|--- .... ....|--- .... ....
....|1B|B-3 .... ....|--- .... ....|E-4 .... ....
....|1C|--- .... ....|--- .... ....|--- .... ....
....|1D|E-4 .... ....|--- .... ....|E-3 .... ....
....|1E|--- .... ....|--- .... ....|--- .... ....
....|1F|E-3 .... ....|--- .... ....|B-3 .... ....
....|1F|--- .... ....|--- .... ....|--- .... ....
....|..|B-3 .... ....|--- .... ....|D-4 .... ....
....|..|--- .... ....|--- .... ....|--- .... ....
....|..|D-4 .... ....|--- .... ....|E-4 .... ....
....|..|--- .... ....|--- .... ....|--- .... ....
....|..|E-4 .... ....|--- .... ....|E-3 .... ....
....|..|--- .... ....|--- .... ....|--- .... ....
....|..|E-3 .... ....|--- .... ....|B-3 .... ....
....|..|--- .... ....|--- .... ....|--- .... ....
....|..|B-3 .... ....|--- .... ....|D-4 .... ....
....|..|--- .... ....|--- .... ....|--- .... ....
....|..|D-4 .... ....|--- .... ....|E-4 .... ....
....|..|--- .... ....|--- .... ....|--- .... ....
....|..|E-4 .... ....|--- .... ....|E-3 .... ....
....|..|--- .... ....|--- .... ....|--- .... ....
....|..|E-3 .... ....|--- .... ....|B-3 .... ....
....|..|--- .... ....|--- .... ....|--- .... ....
....|..|B-3 .... ....|--- .... ....|D-4 .... ....
....|..|--- .... ....|--- .... ....|--- .... ....
....|..|D-4 .... ....|--- .... ....|E-4 .... ....
....|..|--- .... ....|--- .... ....|--- .... ....
....|..|E-4 .... ....|--- .... ....|B-3 .... ....
....|..|--- .... ....|--- .... ....|--- .... ....
....|..|B-3 .... ....|--- .... ....|D-4 .... ....
....|..|--- .... ....|--- .... ....|--- .... ....
....|..|D-4 .... ....|--- .... ....|B-3 .... ....
....|..|--- .... ....|--- .... ....|--- .... ....

[Pattern8]
..53|..|--- .... ....|E-1 3A.. ....|E-5 2F.D ....
....|..|--- .... ....|--- .... ....|--- .... ....
....|.1|E-5 1F.8 ....|--- .... ....|E-3 .... ....
....|.1|--- .... ....|--- .... ....|--- .... ....
....|.2|E-3 .... ....|--- .... ....|B-3 .... ....
....|.2|--- .... ....|--- .... ....|--- .... ....
....|.3|B-3 .... ....|--- .... ....|D-4 .... ....
....|.3|--- .... ....|--- .... ....|--- .... ....
....|.4|D-4 .... ....|--- .... ....|E-4 .... ....
....|.4|--- .... ....|--- .... ....|--- .... ....
....|.5|E-4 .... ....|--- .... ....|E-3 .... ....
....|.6|--- .... ....|--- .... ....|--- .... ....
....|.7|E-3 .... ....|--- .... ....|B-3 .... ....
....|.8|--- .... ....|--- .... ....|--- .... ....
....|.9|B-3 .... ....|--- .... ....|D-4 .... ....
....|.A|--- .... ....|--- .... ....|--- .... ....
....|.B|D-4 .... ....|--- .... ....|E-4 .... ....
....|.C|--- .... ....|--- .... ....|--- .... ....
....|.D|E-4 .... ....|--- .... ....|E-3 .... ....
....|.E|--- .... ....|--- .... ....|--- .... ....
....|.F|E-3 .... ....|--- .... ....|B-3 .... ....
....|10|--- .... ....|--- .... ....|--- .... ....
....|11|B-3 .... ....|--- .... ....|D-4 .... ....
....|12|--- .... ....|--- .... ....|--- .... ....
....|13|D-4 .... ....|--- .... ....|E-4 .... ....
....|14|--- .... ....|--- .... ....|--- .... ....
....|15|E-4 .... ....|--- .... ....|B-3 .... ....
....|16|--- .... ....|--- .... ....|--- .... ....
....|17|B-3 .... ....|--- .... ....|D-4 .... ....
....|18|--- .... ....|--- .... ....|--- .... ....
....|19|D-4 .... ....|--- .... ....|B-3 .... ....
....|1A|--- .... ....|--- .... ....|--- .... ....
....|1B|B-3 .... ....|--- .... ....|E-4 .... ....
....|1C|--- .... ....|--- .... ....|--- .... ....
....|1D|E-4 .... ....|--- .... ....|E-3 .... ....
....|1E|--- .... ....|--- .... ....|--- .... ....
....|1F|E-3 .... ....|--- .... ....|B-3 .... ....
....|1F|--- .... ....|--- .... ....|--- .... ....
....|..|B-3 .... ....|--- .... ....|D-4 .... ....
....|..|--- .... ....|--- .... ....|--- .... ....
....|..|D-4 .... ....|--- .... ....|E-4 .... ....
....|..|--- .... ....|--- .... ....|--- .... ....
....|..|E-4 .... ....|--- .... ....|E-3 .... ....
....|..|--- .... ....|--- .... ....|--- .... ....
....|..|E-3 .... ....|--- .... ....|B-3 .... ....
....|..|--- .... ....|--- .... ....|--- .... ....
....|..|B-3 .... ....|--- .... ....|D-4 .... ....
....|..|--- .... ....|--- .... ....|--- .... ....
....|..|D-4 .... ....|--- .... ....|E-4 .... ....
....|..|--- .... ....|--- .... ....|--- .... ....
....|..|E-4 .... ....|--- .... ....|E-3 .... ....
....|..|--- .... ....|--- .... ....|--- .... ....
....|..|E-3 .... ....|--- .... ....|B-3 .... ....
....|..|--- .... ....|--- .... ....|--- .... ....
....|..|B-3 .... ....|--- .... ....|D-4 .... ....
....|..|--- .... ....|--- .... ....|--- .... ....
....|..|D-4 .... ....|--- .... ....|E-4 .... ....
....|..|--- .... ....|--- .... ....|--- .... ....
....|..|E-4 .... ....|--- .... ....|B-3 .... ....
....|..|--- .... ....|--- .... ....|--- .... ....
....|..|B-3 .... ....|--- .... ....|D-4 .... ....
....|..|--- .... ....|--- .... ....|--- .... ....
....|..|D-4 .... ....|--- .... ....|B-3 .... ....
....|..|--- .... ....|--- .... ....|--- .... ....

[Pattern9]
..53|..|--- .... ....|E-1 3A.. ....|E-5 2F.D ....
....|..|--- .... ....|--- .... ....|--- .... ....
....|.1|E-5 1F.8 ....|--- .... ....|E-3 .... ....
....|.1|--- .... ....|--- .... ....|--- .... ....
....|.2|E-3 .... ....|--- .... ....|B-3 .... ....
....|.2|--- .... ....|--- .... ....|--- .... ....
....|.3|B-3 .... ....|--- .... ....|D-4 ...C ....
....|.3|--- .... ....|--- .... ....|--- .... ....
....|.4|D-4 ...7 ....|--- .... ....|E-4 .... ....
....|.4|--- .... ....|--- .... ....|--- .... ....
....|.5|E-4 .... ....|--- .... ....|E-3 .... ....
....|.6|--- .... ....|--- .... ....|--- .... ....
....|.7|E-3 .... ....|--- .... ....|B-3 ...B ....
....|.8|--- .... ....|--- .... ....|--- .... ....
....|.9|B-3 ...6 ....|--- .... ....|D-4 .... ....
....|.A|--- .... ....|--- .... ....|--- .... ....
....|.B|D-4 .... ....|--- .... ....|E-4 .... ....
....|.C|--- .... ....|--- .... ....|--- .... ....
....|.D|E-4 .... ....|--- .... ....|E-3 ...A ....
....|.E|--- .... ....|--- .... ....|--- .... ....
....|.F|E-3 ...5 ....|--- .... ....|B-3 .... ....
....|10|--- .... ....|--- .... ....|--- .... ....
....|11|B-3 .... ....|--- .... ....|D-4 .... ....
....|12|--- .... ....|--- .... ....|--- .... ....
....|13|D-4 .... ....|--- .... ....|E-4 ...9 ....
....|14|--- .... ....|--- .... ....|--- .... ....
....|15|E-4 ...4 ....|--- .... ....|B-3 .... ....
....|16|--- .... ....|--- .... ....|--- .... ....
....|17|B-3 .... ....|--- .... ....|D-4 .... ....
....|18|--- .... ....|--- .... ....|--- .... ....
....|19|D-4 .... ....|--- .... ....|B-3 ...8 ....
....|1A|--- .... ....|--- .... ....|--- .... ....
....|1B|B-3 ...3 ....|--- .... ....|E-4 .... ....
....|1C|--- .... ....|--- .... ....|--- .... ....
....|1D|E-4 .... ....|--- .... ....|E-3 .... ....
....|1E|--- .... ....|--- .... ....|--- .... ....
....|1F|E-3 .... ....|--- .... ....|B-3 ...7 ....
....|1F|--- .... ....|--- .... ....|--- .... ....
....|..|B-3 ...2 ....|--- .... ....|D-4 .... ....
....|..|--- .... ....|--- .... ....|--- .... ....
....|..|D-4 .... ....|--- .... ....|E-4 .... ....
....|..|--- .... ....|--- .... ....|--- .... ....
....|..|E-4 .... ....|--- .... ....|E-3 ...6 ....
....|..|--- .... ....|--- .... ....|--- .... ....
....|..|E-3 ...1 ....|--- .... ....|B-3 .... ....
....|..|--- .... ....|--- .... ....|--- .... ....
....|..|B-3 .... ....|--- .... ....|D-4 ...5 ....
....|..|--- .... ....|--- .... ....|--- .... ....
....|..|D-4 .... ....|--- .... ....|E-4 .... ....
....|..|--- .... ....|--- .... ....|--- .... ....
....|..|E-4 .... ....|--- .... ....|E-3 ...4 ....
....|..|--- .... ....|--- .... ....|--- .... ....
....|..|E-3 .... ....|--- .... ....|B-3 .... ....
....|..|--- .... ....|--- .... ....|--- .... ....
....|..|B-3 .... ....|--- .... ....|D-4 ...3 ....
....|..|--- .... ....|--- .... ....|--- .... ....
....|..|D-4 .... ....|--- .... ....|E-4 .... ....
....|..|--- .... ....|--- .... ....|--- .... ....
....|..|E-4 .... ....|--- .... ....|B-3 ...2 ....
....|..|--- .... ....|--- .... ....|--- .... ....
....|..|B-3 .... ....|--- .... ....|D-4 .... ....
....|..|--- .... ....|--- .... ....|--- .... ....
....|..|D-4 .... ....|--- .... ....|B-3 .... ....
....|..|--- .... ....|--- .... ....|--- .... ....

[Pattern10]
....|..|D-6 9F.7 ....|--- .... ....|D-6 8F.4 ....
....|..|--- .... ....|--- .... ....|--- .... ....
....|..|--- .... ....|--- .... ....|--- .... ....
....|..|--- .... ....|--- .... ....|--- .... ....
....|..|--- .... ....|--- .... ....|--- .... ....
....|..|--- .... ....|--- .... ....|--- .... ....
....|..|B-5 .... ....|--- .... ....|B-5 .... ....
....|..|--- .... ....|--- .... ....|--- .... ....
....|..|--- .... ....|--- .... ....|--- .... ....
....|..|--- .... ....|--- .... ....|--- .... ....
....|..|--- .... ....|--- .... ....|--- .... ....
....|..|--- .... ....|--- .... ....|--- .... ....
....|..|--- .... ....|--- .... ....|--- .... ....
....|..|--- .... ....|--- .... ....|--- .... ....
....|..|--- .... ....|--- .... ....|--- .... ....
....|..|--- .... ....|--- .... ....|--- .... ....
....|..|--- .... ....|--- .... ....|--- .... ....
....|..|--- .... ....|--- .... ....|--- .... ....
....|..|--- .... ....|--- .... ....|--- .... ....
....|..|--- .... ....|--- .... ....|--- .... ....
....|..|G-5 .... ....|--- .... ....|G-5 .... ....
....|..|--- .... ....|--- .... ....|--- .... ....
....|..|--- .... ....|--- .... ....|--- .... ....
....|..|--- .... ....|--- .... ....|--- .... ....
....|..|--- .... ....|--- .... ....|--- .... ....
....|..|--- .... ....|--- .... ....|--- .... ....
....|..|--- .... ....|--- .... ....|--- .... ....
....|..|--- .... ....|--- .... ....|--- .... ....
....|..|D-5 .... ....|--- .... ....|D-5 .... ....
....|..|--- .... ....|--- .... ....|--- .... ....
....|..|--- .... ....|--- .... ....|--- .... ....
....|..|--- .... ....|--- .... ....|--- .... ....
....|..|B-4 .... ....|--- .... ....|B-4 .... ....
....|..|--- .... ....|--- .... ....|--- .... ....
....|..|--- .... ....|--- .... ....|--- .... ....
....|..|--- .... ....|--- .... ....|--- .... ....
....|..|--- .... ....|--- .... ....|--- .... ....
....|..|--- .... ....|--- .... ....|--- .... ....
....|..|--- .... ....|--- .... ....|--- .... ....
....|..|--- .... ....|--- .... ....|--- .... ....
....|..|--- .... ....|--- .... ....|--- .... ....
....|..|--- .... ....|--- .... ....|--- .... ....
....|..|--- .... ....|--- .... ....|--- .... ....
....|..|--- .... ....|--- .... ....|--- .... ....
....|..|D-5 .... ....|--- .... ....|D-5 .... ....
....|..|--- .... ....|--- .... ....|--- .... ....
....|..|--- .... ....|--- .... ....|--- .... ....
....|..|--- .... ....|--- .... ....|--- .... ....
....|..|--- .... ....|--- .... ....|--- .... ....
....|..|--- .... ....|--- .... ....|--- .... ....
....|..|--- .... ....|--- .... ....|--- .... ....
....|..|--- .... ....|--- .... ....|--- .... ....
....|..|--- .... ....|--- .... ....|--- .... ....
....|..|--- .... ....|--- .... ....|--- .... ....
....|..|--- .... ....|--- .... ....|--- .... ....
....|..|--- .... ....|--- .... ....|--- .... ....
....|..|--- .... ....|--- .... ....|--- .... ....
....|..|--- .... ....|--- .... ....|--- .... ....
....|..|--- .... ....|--- .... ....|--- .... ....
....|..|--- .... ....|--- .... ....|--- .... ....
....|..|B-5 .... ....|--- .... ....|B-5 .... ....
....|..|--- .... ....|--- .... ....|--- .... ....
....|..|--- .... ....|--- .... ....|--- .... ....
....|..|--- .... ....|--- .... ....|--- .... ....

[Pattern11]
..2A|..|D-6 9F.7 ....|E-3 AE.F ....|D-6 8F.4 ....
....|..|--- .... ....|--- .... ....|--- .... ....
....|..|--- .... ....|--- .... ....|--- .... ....
..53|..|--- .... ....|E-2 .E.. ....|--- .... ....
....|..|--- .... ....|--- .... ....|--- .... ....
....|..|--- .... ....|--- .... ....|--- .... ....
..37|..|B-5 .... ....|B-2 .E.. ....|B-5 .... ....
....|..|--- .... ....|--- .... ....|--- .... ....
....|..|--- .... ....|--- .... ....|--- .... ....
....|..|--- .... ....|--- .... ....|--- .... ....
....|..|--- .... ....|--- .... ....|--- .... ....
....|..|--- .... ....|--- .... ....|--- .... ....
....|..|--- .... ....|--- .... ....|--- .... ....
....|..|--- .... ....|--- .... ....|--- .... ....
....|..|--- .... ....|--- .... ....|--- .... ....
....|..|--- .... ....|--- .... ....|--- .... ....
..1F|..|--- .... ....|A-3 .E.. ....|--- .... ....
....|..|--- .... ....|--- .... ....|--- .... ....
....|..|--- .... ....|--- .... ....|--- .... ....
..3E|..|--- .... ....|A-2 .E.. ....|--- .... ....
....|..|G-5 .... ....|--- .... ....|G-5 .... ....
....|..|--- .... ....|--- .... ....|--- .... ....
..46|..|--- .... ....|G-2 .E.. ....|--- .... ....
....|..|--- .... ....|--- .... ....|--- .... ....
....|..|--- .... ....|--- .... ....|--- .... ....
....|..|--- .... ....|--- .... ....|--- .... ....
..3E|..|--- .... ....|A-2 .E.. ....|--- .... ....
....|..|--- .... ....|--- .... ....|--- .... ....
....|..|D-5 .... ....|--- .... ....|D-5 .... ....
....|..|--- .... ....|--- .... ....|--- .... ....
....|..|--- .... ....|--- .... ....|--- .... ....
....|..|--- .... ....|--- .... ....|--- .... ....
..2A|..|B-4 .... ....|E-3 .E.. ....|B-4 .... ....
....|..|--- .... ....|--- .... ....|--- .... ....
....|..|--- .... ....|--- .... ....|--- .... ....
..53|..|--- .... ....|E-2 .E.. ....|--- .... ....
....|..|--- .... ....|--- .... ....|--- .... ....
....|..|--- .... ....|--- .... ....|--- .... ....
..2F|..|--- .... ....|D-3 .E.. ....|--- .... ....
....|..|--- .... ....|--- .... ....|--- .... ....
....|..|--- .... ....|--- .... ....|--- .... ....
....|..|--- .... ....|--- .... ....|--- .... ....
..23|..|--- .... ....|G-3 .E.. ....|--- .... ....
....|..|--- .... ....|--- .... ....|--- .... ....
....|..|D-5 .... ....|--- .... ....|D-5 .... ....
....|..|--- .... ....|--- .... ....|--- .... ....
..1F|..|--- .... ....|A-3 .E.. ....|--- .... ....
....|..|--- .... ....|--- .... ....|--- .... ....
..2A|..|--- .... ....|E-3 .E.. ....|--- .... ....
....|..|--- .... ....|--- .... ....|--- .... ....
....|..|--- .... ....|--- .... ....|--- .... ....
..2A|..|--- .... ....|E-3 .E.. ....|--- .... ....
....|..|--- .... ....|--- .... ....|--- .... ....
....|..|--- .... ....|--- .... ....|--- .... ....
..53|..|--- .... ....|E-2 .E.. ....|--- .... ....
....|..|--- .... ....|--- .... ....|--- .... ....
....|..|--- .... ....|--- .... ....|--- .... ....
....|..|--- .... ....|--- .... ....|--- .... ....
....|..|--- .... ....|--- .... ....|--- .... ....
....|..|--- .... ....|--- .... ....|--- .... ....
..53|..|B-5 .... ....|E-2 .E.. ....|B-5 .... ....
....|..|--- .... ....|--- .... ....|--- .... ....
....|..|--- .... ....|--- .... ....|--- .... ....
....|..|--- .... ....|--- .... ....|--- .... ....

[Pattern12]
..2A|..|D-6 9F.6 ....|E-3 AE.F ....|D-6 8F.3 ....
....|..|--- .... ....|--- .... ....|--- .... ....
....|..|--- .... ....|--- .... ....|--- .... ....
..53|..|--- .... ....|E-2 .E.. ....|--- .... ....
....|..|--- .... ....|--- .... ....|--- .... ....
....|..|--- .... ....|--- .... ....|--- .... ....
..37|..|B-5 .... ....|B-2 .E.. ....|B-5 .... ....
....|..|--- .... ....|--- .... ....|--- .... ....
....|..|--- .... ....|--- .... ....|--- .... ....
....|..|--- .... ....|--- .... ....|--- .... ....
....|..|--- .... ....|--- .... ....|--- .... ....
....|..|--- .... ....|--- .... ....|--- .... ....
....|..|--- .... ....|--- .... ....|--- .... ....
....|..|--- .... ....|--- .... ....|--- .... ....
....|..|--- .... ....|--- .... ....|--- .... ....
....|..|--- .... ....|--- .... ....|--- .... ....
..1F|..|--- .... ....|A-3 .E.. ....|--- .... ....
....|..|--- .... ....|--- .... ....|--- .... ....
....|..|--- .... ....|--- .... ....|--- .... ....
..3E|..|--- .... ....|A-2 .E.. ....|--- .... ....
....|..|G-5 .... ....|--- .... ....|G-5 .... ....
....|..|--- .... ....|--- .... ....|--- .... ....
..46|..|--- .... ....|G-2 .E.. ....|--- .... ....
....|..|--- .... ....|--- .... ....|--- .... ....
....|..|--- .... ....|--- .... ....|--- .... ....
....|..|--- .... ....|--- .... ....|--- .... ....
..3E|..|--- .... ....|A-2 .E.. ....|--- .... ....
....|..|--- .... ....|--- .... ....|--- .... ....
....|..|D-5 .... ....|--- .... ....|D-5 .... ....
....|..|--- .... ....|--- .... ....|--- .... ....
....|..|--- .... ....|--- .... ....|--- .... ....
....|..|--- .... ....|--- .... ....|--- .... ....
..2A|..|B-4 .... ....|E-3 .E.. ....|B-4 .... ....
....|..|--- .... ....|--- .... ....|--- .... ....
....|..|--- .... ....|--- .... ....|--- .... ....
..53|..|--- .... ....|E-2 .E.. ....|--- .... ....
....|..|--- .... ....|--- .... ....|--- .... ....
....|..|--- .... ....|--- .... ....|--- .... ....
..2F|..|--- .... ....|D-3 .E.. ....|--- .... ....
....|..|--- .... ....|--- .... ....|--- .... ....
....|..|--- .... ....|--- .... ....|--- .... ....
....|..|--- .... ....|--- .... ....|--- .... ....
..23|..|--- .... ....|G-3 .E.. ....|--- .... ....
....|..|--- .... ....|--- .... ....|--- .... ....
....|..|D-5 .... ....|--- .... ....|D-5 .... ....
....|..|--- .... ....|--- .... ....|--- .... ....
..1F|..|--- .... ....|A-3 .E.. ....|--- .... ....
....|..|--- .... ....|--- .... ....|--- .... ....
..2A|..|--- .... ....|E-3 .E.. ....|--- .... ....
....|..|--- .... ....|--- .... ....|--- .... ....
....|..|--- .... ....|--- .... ....|--- .... ....
..2A|..|--- .... ....|E-3 .E.. ....|--- .... ....
....|..|--- .... ....|--- .... ....|--- .... ....
....|..|--- .... ....|--- .... ....|--- .... ....
..53|..|--- .... ....|E-2 .E.. ....|--- .... ....
....|..|--- .... ....|--- .... ....|--- .... ....
....|..|--- .... ....|--- .... ....|--- .... ....
....|..|--- .... ....|--- .... ....|--- .... ....
....|..|--- .... ....|--- .... ....|--- .... ....
....|..|--- .... ....|--- .... ....|--- .... ....
..53|..|B-5 .... ....|E-2 .E.. ....|B-5 .... ....
....|..|--- .... ....|--- .... ....|--- .... ....
....|..|--- .... ....|--- .... ....|--- .... ....
....|..|--- .... ....|--- .... ....|--- .... ....

[Pattern13]
..2A|..|D-6 9F.6 ....|E-3 AE.F ....|D-6 8F.3 ....
....|..|--- .... ....|--- .... ....|--- .... ....
....|..|--- .... ....|--- .... ....|--- .... ....
..53|..|--- .... ....|E-2 .E.. ....|--- .... ....
....|..|--- .... ....|--- .... ....|--- .... ....
....|..|--- .... ....|--- .... ....|--- .... ....
..37|..|B-5 .... ....|B-2 .E.. ....|B-5 .... ....
....|..|--- .... ....|--- .... ....|--- .... ....
....|..|--- .... ....|--- .... ....|--- .... ....
....|..|--- .... ....|--- .... ....|--- .... ....
....|..|--- .... ....|--- .... ....|--- .... ....
....|..|--- .... ....|--- .... ....|--- .... ....
....|..|--- .... ....|--- .... ....|--- .... ....
....|..|--- .... ....|--- .... ....|--- .... ....
....|..|--- .... ....|--- .... ....|--- .... ....
....|..|--- .... ....|--- .... ....|--- .... ....
..1F|..|--- .... ....|A-3 .E.. ....|--- .... ....
....|..|--- .... ....|--- .... ....|--- .... ....
....|..|--- .... ....|--- .... ....|--- .... ....
..3E|..|--- .... ....|A-2 .E.. ....|--- .... ....
....|..|G-5 ...5 ....|--- .... ....|G-5 .... ....
....|..|--- .... ....|--- .... ....|--- .... ....
..46|..|--- .... ....|G-2 .E.. ....|--- .... ....
....|..|--- .... ....|--- .... ....|--- .... ....
....|..|--- .... ....|--- .... ....|--- .... ....
....|..|--- .... ....|--- .... ....|--- .... ....
..3E|..|--- .... ....|A-2 .E.. ....|--- .... ....
....|..|--- .... ....|--- .... ....|--- .... ....
....|..|D-5 .... ....|--- .... ....|D-5 .... ....
....|..|--- .... ....|--- .... ....|--- .... ....
....|..|--- .... ....|--- .... ....|--- .... ....
....|..|--- .... ....|--- .... ....|--- .... ....
..2A|..|B-4 .... ....|E-3 .E.. ....|B-4 .... ....
....|..|--- .... ....|--- .... ....|--- .... ....
....|..|--- .... ....|--- .... ....|--- .... ....
..53|..|--- .... ....|E-2 .E.. ....|--- .... ....
....|..|--- .... ....|--- .... ....|--- .... ....
....|..|--- .... ....|--- .... ....|--- .... ....
..2F|..|--- .... ....|D-3 .E.. ....|--- .... ....
....|..|--- .... ....|--- .... ....|--- .... ....
....|..|--- .... ....|--- .... ....|--- .... ....
....|..|--- .... ....|--- .... ....|--- .... ....
..23|..|--- .... ....|G-3 .E.. ....|--- .... ....
....|..|--- .... ....|--- .... ....|--- .... ....
....|..|D-5 ...4 ....|--- .... ....|D-5 .... ....
....|..|--- .... ....|--- .... ....|--- .... ....
..1F|..|--- .... ....|A-3 .E.. ....|--- .... ....
....|..|--- .... ....|--- .... ....|--- .... ....
..2A|..|--- .... ....|E-3 .E.. ....|--- .... ....
....|..|--- .... ....|--- .... ....|--- .... ....
....|..|--- .... ....|--- .... ....|--- .... ....
..2A|..|--- .... ....|E-3 .E.. ....|--- .... ....
....|..|--- .... ....|--- .... ....|--- .... ....
....|..|--- .... ....|--- .... ....|--- .... ....
..53|..|--- .... ....|E-2 .E.. ....|--- .... ....
....|..|--- .... ....|--- .... ....|--- .... ....
....|..|--- .... ....|--- .... ....|--- .... ....
....|..|--- .... ....|--- .... ....|--- .... ....
....|..|--- .... ....|--- .... ....|--- .... ....
....|..|--- .... ....|--- .... ....|--- .... ....
..53|..|B-5 .... ....|E-2 .E.. ....|B-5 .... ....
....|..|--- .... ....|--- .... ....|--- .... ....
....|..|--- .... ....|--- .... ....|--- .... ....
....|..|--- .... ....|--- .... ....|--- .... ....

[Pattern14]
..2A|..|D-6 9F.3 ....|E-3 AE.F ....|D-6 8F.1 ....
....|..|--- .... ....|--- .... ....|--- .... ....
....|..|--- .... ....|R-- .... ....|--- .... ....
..53|..|--- .... ....|E-2 .E.. ....|--- .... ....
....|..|--- .... ....|--- .... ....|--- .... ....
....|..|--- .... ....|R-- .... ....|--- .... ....
..37|..|B-5 .... ....|B-2 .E.. ....|B-5 .... ....
....|..|--- .... ....|--- .... ....|--- .... ....
....|..|--- .... ....|--- .... ....|--- .... ....
....|..|--- .... ....|--- .... ....|--- .... ....
....|..|--- .... ....|R-- .... ....|--- .... ....
....|..|--- .... ....|--- .... ....|--- .... ....
....|..|--- .... ....|--- .... ....|--- .... ....
....|..|--- .... ....|--- .... ....|--- .... ....
....|..|--- .... ....|--- .... ....|--- .... ....
....|..|--- .... ....|--- .... ....|--- .... ....
..1F|..|--- .... ....|A-3 .E.. ....|--- .... ....
....|..|--- .... ....|--- .... ....|--- .... ....
....|..|--- .... ....|R-- .... ....|--- .... ....
..3E|..|--- .... ....|A-2 .E.. ....|--- .... ....
....|..|G-5 ...2 ....|--- .... ....|G-5 .... ....
....|..|--- .... ....|R-- .... ....|--- .... ....
..46|..|--- .... ....|G-2 .E.. ....|--- .... ....
....|..|--- .... ....|--- .... ....|--- .... ....
....|..|--- .... ....|--- .... ....|--- .... ....
....|..|--- .... ....|R-- .... ....|--- .... ....
..3E|..|--- .... ....|A-2 .E.. ....|--- .... ....
....|..|--- .... ....|--- .... ....|--- .... ....
....|..|D-5 .... ....|--- .... ....|D-5 .... ....
....|..|--- .... ....|--- .... ....|--- .... ....
....|..|--- .... ....|--- .... ....|--- .... ....
....|..|--- .... ....|R-- .... ....|--- .... ....
..2A|..|B-4 .... ....|E-3 .E.. ....|B-4 .... ....
....|..|--- .... ....|R-- .... ....|--- .... ....
....|..|--- .... ....|--- .... ....|--- .... ....
..53|..|--- .... ....|E-2 .E.. ....|--- .... ....
....|..|--- .... ....|R-- .... ....|--- .... ....
....|..|--- .... ....|--- .... ....|--- .... ....
..2F|..|--- .... ....|D-3 .E.. ....|--- .... ....
....|..|--- .... ....|R-- .... ....|--- .... ....
....|..|--- .... ....|--- .... ....|--- .... ....
....|..|--- .... ....|--- .... ....|--- .... ....
..23|..|--- .... ....|G-3 .E.. ....|--- .... ....
....|..|--- .... ....|R-- .... ....|--- .... ....
....|..|D-5 ...1 ....|--- .... ....|D-5 .... ....
....|..|--- .... ....|--- .... ....|--- .... ....
..1F|..|--- .... ....|A-3 .E.. ....|--- .... ....
....|..|--- .... ....|R-- .... ....|--- .... ....
..2A|..|--- .... ....|E-3 .E.. ....|--- .... ....
....|..|--- .... ....|R-- .... ....|--- .... ....
....|..|--- .... ....|--- .... ....|--- .... ....
..2A|..|--- .... ....|E-3 .E.. ....|--- .... ....
....|..|--- .... ....|R-- .... ....|--- .... ....
....|..|--- .... ....|--- .... ....|--- .... ....
..53|..|--- .... ....|E-2 .E.. ....|--- .... ....
....|..|--- .... ....|R-- .... ....|--- .... ....
....|..|--- .... ....|--- .... ....|--- .... ....
....|..|--- .... ....|--- .... ....|--- .... ....
....|..|--- .... ....|--- .... ....|--- .... ....
....|..|--- .... ....|--- .... ....|--- .... ....
..53|..|B-5 .... ....|E-2 .E.. ....|B-5 .... ....
....|..|--- .... ....|R-- .... ....|--- .... ....
....|..|--- .... ....|--- .... ....|--- .... ....
....|..|--- .... ....|--- .... ....|--- .... ....

